<svg xmlns="http://www.w3.org/2000/svg" viewBox="0 0 250 224" width="250" height="224">
	<style>
		tspan { white-space:pre }
		.shp0 { fill: #1f1e1e } 
		.shp1 { fill: #9c9b65 } 
		.shp2 { fill: #fefffe } 
		.shp3 { fill: #6f1a31 } 
	</style>
	<g >
		<path class="shp0" d="M109.08 0.29C107.92 0.43 106.31 0.68 105.51 0.84C104.7 1 103.26 1.32 102.31 1.56C101.35 1.8 99.6 2.33 98.42 2.74C97.23 3.15 95.05 4.02 93.57 4.67C92.08 5.33 89.76 6.47 88.4 7.21L85.93 8.55C81.81 7.21 80.04 6.67 79.34 6.49L78.06 6.16C74.94 6.95 73.25 7.47 72.29 7.82C71.34 8.17 69.79 8.82 68.86 9.27C67.88 9.73 67.13 10.21 67.08 10.39C67.03 10.57 66.87 11.83 66.71 13.19C66.56 14.55 66.44 16.83 66.44 18.27L66.43 20.88C69.06 24.47 70.64 26.38 71.65 27.43C72.66 28.49 73.85 29.62 74.3 29.96L75.13 30.56C74.22 33.35 73.82 34.94 73.65 35.9C73.47 36.91 73.34 38.64 73.33 40.02C73.33 41.33 73.43 43.02 73.56 43.77C73.69 44.53 74.04 45.93 74.35 46.89L74.9 48.63C73.47 51.32 72.84 52.73 72.57 53.48C72.31 54.24 71.95 55.43 71.78 56.14C71.56 57.05 71.47 58.22 71.47 60.17C71.47 61.87 71.56 63.3 71.72 63.92C71.85 64.48 72.25 65.67 72.61 66.58C73.19 68.06 73.23 68.27 73 68.66C72.86 68.9 72.18 69.85 71.49 70.77C70.8 71.69 69.86 72.85 69.4 73.35C68.93 73.86 68.02 74.75 67.36 75.34C66.7 75.94 65.58 76.81 64.88 77.29C64.17 77.77 63.06 78.42 62.41 78.74C61.44 79.23 61.18 79.29 61.01 79.09C60.89 78.96 60.42 78.35 59.97 77.75L59.15 76.65C60.43 75.23 61.1 74.28 61.46 73.63C61.82 72.97 62.34 71.74 62.61 70.88C62.88 70.03 63.2 68.58 63.33 67.68C63.47 66.62 63.52 64.91 63.46 62.91C63.38 60.43 63.27 59.45 62.91 58.06C62.66 57.1 62.13 55.62 61.73 54.76C61.32 53.91 60.55 52.59 60.01 51.83C59.48 51.08 58.38 49.77 57.57 48.93C56.76 48.09 55.56 46.96 54.9 46.43C54.25 45.89 53.02 44.99 52.16 44.42C51.3 43.86 49.7 42.95 48.59 42.4C47.48 41.86 45.71 41.12 44.66 40.77C43.6 40.42 41.91 39.96 40.9 39.76C39.9 39.56 38.21 39.29 37.15 39.18C35.97 39.05 33.92 39.01 31.84 39.07C29.78 39.13 27.6 39.32 26.26 39.54C25.05 39.75 23.53 40.04 22.88 40.19C22.22 40.34 20.97 40.67 20.09 40.93C19.21 41.18 17.64 41.81 16.61 42.32C15.58 42.84 13.95 43.78 12.99 44.42C12.04 45.06 10.62 46.15 9.83 46.83C9.05 47.52 7.87 48.7 7.22 49.45C6.56 50.21 5.52 51.57 4.91 52.47C4.3 53.38 3.45 54.86 3.01 55.77C2.58 56.68 1.97 58.16 1.67 59.07C1.37 59.97 0.95 61.54 0.75 62.55C0.55 63.56 0.29 65.49 0.18 66.85C0.04 68.62 0.04 70.08 0.18 71.98C0.29 73.45 0.53 75.21 0.73 75.92C0.93 76.62 1.27 77.65 1.48 78.21C1.69 78.76 2.25 79.96 2.71 80.86C3.18 81.77 4.03 83.13 4.59 83.89C5.15 84.64 6.31 85.92 7.17 86.72C8.02 87.53 9.38 88.57 10.17 89.04C10.97 89.51 12.03 90.06 12.54 90.28L13.45 90.67C13.64 96.13 13.87 98.99 14.08 100.55C14.3 102.11 14.76 104.83 15.11 106.6C15.46 108.36 16.04 110.91 16.4 112.27C16.76 113.63 17.42 115.94 17.88 117.4C18.33 118.86 19.15 121.3 19.71 122.81C20.27 124.32 21.26 126.79 21.92 128.3C22.57 129.81 23.87 132.57 24.8 134.44C25.73 136.3 27.11 138.9 27.86 140.21C28.61 141.52 29.88 143.62 30.69 144.88C31.49 146.14 32.87 148.2 33.76 149.46C34.64 150.71 36.17 152.78 37.16 154.03C38.14 155.29 39.24 156.65 39.6 157.06L40.25 157.79C40.27 156.37 40.38 155.42 40.52 154.77C40.66 154.11 40.91 153.25 41.09 152.84L41.41 152.11C41.81 154.38 42.08 155.66 42.27 156.42C42.47 157.17 42.97 158.78 43.4 159.99C43.83 161.2 44.81 163.46 45.59 165.02C46.36 166.59 47.74 168.98 48.64 170.34C49.55 171.7 50.95 173.59 51.75 174.55C52.55 175.5 53.85 176.9 54.65 177.65C55.44 178.39 56.75 179.49 57.56 180.09C58.36 180.69 59.56 181.5 60.21 181.89C60.87 182.28 62.1 182.88 62.96 183.24C63.81 183.59 65.62 184.15 66.96 184.48L69.41 185.08C69.23 187.78 69.18 189.01 69.19 189.57L69.19 190.57C67.27 191.24 66.38 191.62 65.98 191.86C65.57 192.1 64.87 192.61 64.42 193.01C63.97 193.4 63.29 194.17 62.91 194.71C62.53 195.26 62.02 196.28 61.77 196.98C61.41 198.01 61.32 198.63 61.31 200.1C61.31 201.24 61.42 202.31 61.6 202.94C61.76 203.49 62.2 204.48 62.58 205.13C62.96 205.79 63.76 206.77 64.35 207.32C64.94 207.86 66 208.58 66.71 208.92C67.41 209.25 68.61 209.66 69.36 209.82C70.55 210.08 71.58 210.1 77.14 209.97C80.66 209.89 83.79 209.82 84.1 209.82C84.4 209.82 87.86 209.89 91.78 209.97C97.99 210.1 99.1 210.08 100.29 209.83C101.05 209.67 102.28 209.23 103.04 208.85C103.88 208.43 104.8 207.78 105.43 207.16C105.99 206.6 106.69 205.73 106.99 205.23C107.28 204.73 107.73 203.69 107.98 202.92L108.44 201.51C111.56 204.35 113.49 206.04 114.75 207.1C116.01 208.15 117.94 209.69 119.05 210.52C120.16 211.35 121.93 212.61 122.99 213.32C124.04 214.02 125.9 215.18 127.1 215.9C128.31 216.61 130.58 217.81 132.14 218.57C133.7 219.32 135.8 220.24 136.8 220.62C137.81 221 139.38 221.53 140.28 221.81C141.19 222.08 142.88 222.52 144.03 222.78C145.19 223.04 147.17 223.39 148.43 223.56C149.76 223.74 151.97 223.88 153.73 223.88C155.6 223.88 157.61 223.77 159 223.58C160.23 223.41 162.37 222.97 163.75 222.62C165.14 222.26 167.22 221.6 168.37 221.14C169.53 220.69 171.51 219.78 172.77 219.12C174.03 218.46 175.96 217.32 177.07 216.59C178.18 215.85 179.78 214.69 180.64 214C181.49 213.31 182.92 212.04 183.82 211.18C184.71 210.32 186.06 208.88 186.82 207.97C187.58 207.07 188.69 205.58 189.29 204.68C189.89 203.77 190.73 202.29 191.16 201.38C191.6 200.47 192.25 198.87 192.62 197.81C192.98 196.75 193.48 195.1 193.72 194.15C193.96 193.19 194.33 191.46 194.53 190.3C194.73 189.14 195.02 187.08 195.18 185.72C195.33 184.36 195.54 181.52 195.64 179.4C195.74 177.29 195.83 174.3 195.83 172.76C195.83 171.23 195.87 169.97 195.92 169.97C195.97 169.97 196.52 170.34 197.15 170.8C197.78 171.26 199.16 172.08 200.22 172.62C201.28 173.16 203.13 173.94 204.34 174.34C205.55 174.75 207.56 175.29 208.82 175.54C210.08 175.79 212.14 176.09 213.4 176.21C214.7 176.33 216.71 176.38 218.06 176.32C219.37 176.26 221.1 176.08 221.91 175.93C222.71 175.77 223.82 175.43 224.38 175.18C225.02 174.89 225.99 174.65 227.03 174.53C227.94 174.43 229.17 174.22 229.78 174.07C230.38 173.91 231.45 173.51 232.16 173.18C232.86 172.85 233.73 172.52 234.08 172.44C234.43 172.36 235.67 171.98 236.82 171.58C237.98 171.18 239.46 170.56 240.12 170.2C240.77 169.84 241.85 169 242.51 168.34C243.32 167.52 243.92 166.69 244.38 165.76C244.85 164.81 245.12 163.93 245.26 162.92C245.42 161.83 245.63 161.19 246.08 160.44C246.41 159.89 247.01 158.74 247.41 157.88C247.8 157.02 248.3 155.83 248.51 155.22C248.72 154.62 249.06 153.43 249.28 152.57C249.57 151.41 249.69 150.22 249.76 147.9C249.84 145.49 249.79 144.39 249.55 143.04C249.39 142.09 249 140.56 248.7 139.66C248.39 138.75 247.8 137.31 247.38 136.45C246.96 135.6 246.16 134.19 245.6 133.34C245.03 132.48 244.14 131.25 243.6 130.59C243.07 129.94 242 128.75 241.23 127.96C240.47 127.17 239.27 126.05 238.56 125.47C237.86 124.89 236.37 123.82 235.27 123.09C234.16 122.37 232.1 121.21 230.69 120.52C229.28 119.83 227.1 118.92 225.84 118.49C224.58 118.07 222.63 117.53 221.5 117.29C220.36 117.05 218.43 116.76 217.19 116.65C215.96 116.53 213.98 116.49 212.8 116.56C210.83 116.66 210.65 116.64 210.65 116.35C210.65 116.17 210.35 115.16 210 114.11C209.64 113.05 208.92 111.32 208.39 110.26C207.86 109.2 206.95 107.6 206.37 106.69C205.78 105.78 204.75 104.34 204.09 103.48C203.42 102.63 202.05 101.1 201.05 100.09C200.04 99.07 198.6 97.75 197.84 97.14C197.09 96.52 195.52 95.39 194.36 94.61C193.21 93.83 191.15 92.64 189.79 91.95C188.43 91.27 186.37 90.33 185.21 89.87C184.05 89.42 182.08 88.75 180.82 88.4C179.56 88.04 177.68 87.56 176.64 87.33L174.75 86.91C173.66 84.92 173.04 83.64 172.67 82.79C172.3 81.93 171.71 80.41 171.37 79.4C171.02 78.39 170.79 77.42 170.84 77.25C170.89 77.07 171.49 76.54 172.17 76.07C172.85 75.6 173.93 74.8 174.58 74.28C175.42 73.61 175.89 73.07 176.24 72.35C176.52 71.79 176.95 70.76 177.21 70.06C177.47 69.35 177.85 68.2 178.05 67.49C178.25 66.79 178.6 65.3 178.81 64.2C179.08 62.85 179.21 61.49 179.21 60.08C179.21 58.78 179.1 57.48 178.91 56.69C178.75 55.98 178.4 54.83 178.14 54.12C177.67 52.85 177.67 52.84 177.97 51.56C178.13 50.85 178.5 49.78 178.78 49.18C179.07 48.57 179.72 47.52 180.24 46.84L181.19 45.61C180.9 40.85 180.73 38.6 180.63 37.55C180.53 36.49 180.28 34.47 180.08 33.06C179.88 31.65 179.74 30.49 179.77 30.48C179.79 30.47 180.39 30.16 181.09 29.78C181.8 29.39 182.95 28.7 183.66 28.23C184.36 27.77 185.54 26.81 186.28 26.1C187.02 25.4 187.86 24.45 188.15 23.99L188.67 23.17C188.21 18.25 188.02 17.16 187.82 16.85C187.66 16.6 186.99 15.83 186.33 15.14C185.66 14.45 184.5 13.37 183.75 12.74C182.99 12.11 181.88 11.27 181.28 10.86C180.67 10.46 179.75 9.91 179.22 9.64C178.34 9.2 178.07 9.16 176.06 9.16C174.85 9.16 173.06 9.24 172.08 9.35C171.1 9.45 169.43 9.7 168.37 9.91C167.32 10.11 165.72 10.5 164.83 10.77L163.2 11.26C162.48 10.27 161.4 9.11 160.34 8.05C159.05 6.77 157.72 5.67 156.39 4.79C155.28 4.05 153.57 3.05 152.59 2.55L150.81 1.65C144.3 1.65 141.2 1.77 139.55 1.93C137.94 2.08 135.59 2.42 134.33 2.67C133.08 2.92 131.35 3.36 130.49 3.65L128.93 4.16C127.37 3.22 126.1 2.62 125.09 2.21C124.08 1.81 122.4 1.27 121.34 1.02C120.28 0.77 118.39 0.43 117.13 0.28C115.87 0.13 114.02 0.01 113.01 0.02C112.01 0.03 110.24 0.15 109.08 0.29Z" />
		<path class="shp1" d="M146.05 1.6C146.7 1.64 147.69 1.64 148.24 1.6C148.8 1.56 148.26 1.53 147.05 1.54C145.85 1.54 145.39 1.57 146.05 1.6ZM111.18 3.49C110.18 3.57 108.53 3.77 107.52 3.93C106.52 4.1 104.87 4.44 103.86 4.69C102.86 4.95 101.27 5.42 100.33 5.74C99.4 6.06 98.64 6.36 98.64 6.41C98.64 6.46 99.45 6.47 100.43 6.43C101.41 6.39 103.16 6.46 104.32 6.57C105.48 6.69 107.21 7 108.16 7.25C109.12 7.51 110.52 8.04 111.27 8.43C112.03 8.82 113.08 9.55 113.61 10.06C114.14 10.57 114.55 11.03 114.52 11.08C114.5 11.13 113.96 10.96 113.33 10.71C112.7 10.46 111.47 10.07 110.59 9.85C109.17 9.48 108.54 9.44 105.14 9.44C101.84 9.45 101.03 9.51 99.38 9.87C98.32 10.1 96.67 10.54 95.72 10.84C94.76 11.15 93.92 11.43 93.84 11.47C93.77 11.51 93.99 11.81 94.35 12.13C94.7 12.46 95.06 12.98 95.15 13.28C95.31 13.82 95.3 13.83 93.84 14.56C93.02 14.96 91.34 15.97 90.1 16.8C88.86 17.64 87.81 18.32 87.76 18.32C87.71 18.32 87.8 17.92 87.98 17.45C88.15 16.97 88.64 16.06 89.07 15.43L89.86 14.29C89.08 13.7 88.11 13.17 87.21 12.73C86.3 12.29 84.57 11.59 83.36 11.18C82.16 10.76 80.39 10.22 79.43 9.97L77.69 9.52C75.21 10.23 73.64 10.81 72.61 11.27C71.58 11.73 70.57 12.23 70.37 12.38C70.03 12.64 70 12.9 69.95 16.35L69.89 20.06C72.43 23.18 73.94 24.9 74.88 25.9L76.59 27.72C77.94 25.83 78.33 25.21 78.34 25.14C78.34 25.06 78.16 24.84 77.94 24.63C77.72 24.43 77.14 23.65 76.65 22.89C76.15 22.14 75.6 21.11 75.41 20.61C75.23 20.1 75.02 19.32 74.95 18.87C74.87 18.38 74.91 17.7 75.04 17.22C75.16 16.76 75.41 16.17 75.61 15.89C75.8 15.61 76.3 15.21 76.73 14.99C77.36 14.68 77.73 14.62 78.7 14.69C79.54 14.75 80.18 14.93 80.89 15.3C81.45 15.59 82.48 16.41 83.18 17.12C83.89 17.83 84.67 18.79 84.92 19.25L85.38 20.1C84.14 21.49 83.12 22.88 82.32 24.09C81.51 25.29 80.33 27.35 79.69 28.66C79.05 29.97 78.24 31.91 77.89 32.97C77.54 34.03 77.11 35.59 76.93 36.45C76.69 37.55 76.6 38.75 76.61 40.57C76.63 42.6 76.71 43.44 77.03 44.6C77.25 45.4 77.49 46.12 77.56 46.19C77.63 46.26 78.76 45.41 80.07 44.31C81.38 43.21 82.51 42.31 82.59 42.31C82.66 42.31 82.99 42.44 83.32 42.6C83.65 42.76 83.97 42.82 84.04 42.73C84.11 42.65 84.32 42.01 84.51 41.3C84.85 40.05 84.85 39.99 84.52 38.83C84.33 38.17 84.06 36.9 83.91 35.99C83.76 35.08 83.64 33.39 83.64 32.24C83.64 30.92 83.77 29.51 83.98 28.48C84.16 27.57 84.57 26.3 84.88 25.64C85.19 24.99 85.76 24.09 86.14 23.65C86.53 23.21 87.09 22.72 87.39 22.57C87.69 22.42 88.19 22.22 88.49 22.14C88.81 22.05 89.33 22.06 89.72 22.16C90.1 22.26 90.45 22.43 90.5 22.53C90.55 22.63 90.48 22.86 90.34 23.03C90.2 23.21 89.83 23.87 89.52 24.5C89.2 25.13 88.74 26.36 88.48 27.24C88.23 28.13 87.94 29.75 87.85 30.86C87.73 32.18 87.74 33.63 87.86 35.07C88.01 36.79 88.11 37.32 88.36 37.49C88.53 37.62 89.04 37.76 89.49 37.82C89.95 37.88 90.73 37.84 91.23 37.74C91.74 37.63 92.52 37.3 92.97 37.01C93.43 36.71 94.08 36.04 94.44 35.51C95.04 34.61 95.08 34.46 95.2 32.53C95.26 31.41 95.44 30.08 95.6 29.58C95.76 29.08 96.18 28.17 96.54 27.57C96.89 26.96 97.66 26.03 98.23 25.49C98.82 24.94 99.85 24.25 100.57 23.91C101.27 23.58 102.26 23.21 102.76 23.09C103.27 22.97 104.42 22.87 105.33 22.87C106.23 22.87 107.38 22.96 107.89 23.07C108.39 23.18 109.4 23.47 110.13 23.72C110.86 23.97 111.46 24.24 111.46 24.31C111.46 24.39 110.92 24.55 110.27 24.68C109.61 24.81 108.56 25.14 107.93 25.42C107.27 25.71 106.34 26.35 105.72 26.93C105.09 27.53 104.48 28.32 104.21 28.89C103.97 29.42 103.77 29.98 103.77 30.13C103.77 30.33 103.9 30.38 104.27 30.3C104.55 30.24 105.31 30.07 105.97 29.93C106.62 29.79 107.79 29.68 108.57 29.67C109.35 29.67 110.63 29.8 111.41 29.96C112.24 30.12 113.56 30.59 114.57 31.08C115.87 31.71 116.59 32.2 117.42 33.04C118.04 33.66 118.72 34.51 118.93 34.94C119.15 35.37 119.29 35.8 119.23 35.9C119.18 36 119.25 36.11 119.37 36.14C119.55 36.19 119.54 36.32 119.33 36.71C119.18 36.99 118.8 37.51 118.5 37.88C118.2 38.24 117.62 38.75 117.22 39.01C116.49 39.48 116.47 39.48 113.47 39.41C110.9 39.34 110.38 39.28 109.95 38.99C109.67 38.8 109.4 38.65 109.35 38.65C109.3 38.65 109.43 38.98 109.63 39.38C109.93 39.99 109.95 40.11 109.72 40.11C109.57 40.11 109.05 39.93 108.57 39.7C108.1 39.48 107.38 38.96 106.98 38.56C106.59 38.15 106.1 37.45 105.9 37C105.65 36.45 105.5 35.62 105.45 34.52L105.37 32.88C104.34 33.12 103.74 33.35 103.36 33.54L102.67 33.88C102.83 35.52 103.01 36.61 103.17 37.36C103.33 38.12 103.75 39.31 104.11 40.02C104.52 40.84 105.18 41.73 105.95 42.51C106.79 43.34 107.56 43.9 108.47 44.34C109.2 44.68 109.79 45.03 109.8 45.1C109.81 45.18 109.42 45.28 108.94 45.34C108.46 45.39 107.62 45.35 107.06 45.25C106.51 45.14 105.52 44.79 104.87 44.47C104.2 44.14 103.23 43.43 102.66 42.86C102.06 42.28 101.3 41.24 100.84 40.39C100.09 39.01 100.03 38.95 99.88 39.38C99.79 39.63 99.74 40.45 99.78 41.21C99.83 42.32 99.97 42.83 100.48 43.87C100.82 44.57 101.52 45.57 102.03 46.09C102.6 46.68 103.43 47.27 104.23 47.65C105.4 48.21 105.66 48.26 107.34 48.28C108.8 48.29 109.33 48.38 109.99 48.69C110.45 48.9 111.06 49.08 111.37 49.08C111.89 49.08 111.85 49.15 110.16 50.87C109.2 51.85 108.13 53.07 107.79 53.57C107.45 54.08 106.87 55.15 106.49 55.95C106.11 56.76 105.63 58.16 105.41 59.07C105.14 60.23 105.02 61.31 105.03 62.73C105.03 63.84 105.15 65.36 105.31 66.12C105.46 66.87 105.71 67.82 105.85 68.23C106.05 68.78 106.09 69.56 106.02 71.43C105.95 73.13 106.02 74.59 106.21 76.1C106.37 77.31 106.76 79.29 107.07 80.5C107.38 81.71 107.96 83.52 108.35 84.53C108.74 85.53 109.46 87.14 109.95 88.1C110.44 89.06 111.06 90.19 111.33 90.62C111.6 91.04 111.86 91.37 111.9 91.35C111.95 91.32 111.7 90.11 111.35 88.65C111.01 87.19 110.44 84.51 110.09 82.7C109.74 80.88 109.32 78.45 109.15 77.29C108.98 76.13 108.83 73.99 108.82 72.53L108.8 69.88C109.8 69.39 110.83 69 111.73 68.7C112.64 68.4 114.04 67.99 114.84 67.79C115.65 67.59 117.21 67.28 118.32 67.09C119.93 66.83 121.36 66.76 125.46 66.76C129.54 66.76 130.99 66.83 132.6 67.09C133.7 67.27 135.56 67.67 136.71 67.97C137.87 68.27 139.48 68.78 140.28 69.1L141.75 69.69C141.71 74.2 141.56 76.13 141.3 77.84C141.09 79.3 140.62 81.94 140.27 83.7C139.91 85.47 139.38 87.9 139.08 89.11C138.78 90.31 138.58 91.32 138.63 91.35C138.68 91.37 138.95 91.04 139.21 90.62C139.48 90.19 140.1 89.06 140.59 88.1C141.08 87.14 141.8 85.53 142.19 84.53C142.58 83.52 143.11 81.91 143.37 80.96C143.63 80 143.98 78.47 144.14 77.57C144.34 76.49 144.46 74.74 144.49 72.53C144.51 70.67 144.59 69.02 144.68 68.87C144.76 68.72 144.98 68.06 145.16 67.4C145.34 66.75 145.58 65.43 145.69 64.47C145.84 63.18 145.83 62.28 145.67 60.99C145.56 60.03 145.29 58.72 145.09 58.06C144.89 57.41 144.41 56.25 144.03 55.5C143.65 54.74 142.95 53.59 142.46 52.93C141.98 52.28 141 51.17 140.29 50.48L139 49.22C140.42 49.39 141.2 49.57 141.65 49.73C142.11 49.88 142.89 50.29 143.39 50.63C143.9 50.97 144.65 51.73 145.07 52.32C145.49 52.91 146.12 54.01 146.48 54.76C146.84 55.52 147.34 56.88 147.6 57.79C147.86 58.69 148.07 59.62 148.06 59.85C148.06 60.07 148.14 60.26 148.24 60.26C148.34 60.26 148.93 59.78 149.55 59.21C150.17 58.63 151.17 57.53 151.77 56.78C152.37 56.02 153.13 54.91 153.46 54.31C153.8 53.7 154.24 52.63 154.45 51.92C154.67 51.22 154.84 50.46 154.84 50.23C154.83 49.88 154.62 50.01 153.41 51.13C152.63 51.85 151.21 53.04 150.26 53.78C149.3 54.52 148.47 55.06 148.42 54.99C148.36 54.91 148.21 54.44 148.08 53.94C147.96 53.44 147.59 52.5 147.27 51.85C146.92 51.14 146.14 50.09 145.31 49.22C144.56 48.41 143.32 47.35 142.57 46.86C141.81 46.37 140.55 45.7 139.76 45.37L138.32 44.78C139.39 44.34 140.16 44.29 141.84 44.33C143.1 44.37 144.66 44.39 145.31 44.39C145.97 44.38 146.92 44.24 147.42 44.08C147.95 43.91 148.72 43.45 149.25 42.99C149.75 42.54 150.39 41.77 150.66 41.28C150.93 40.79 151.32 39.89 151.53 39.29C151.73 38.68 151.88 38.17 151.86 38.14C151.83 38.11 151.66 38.32 151.47 38.6C151.28 38.88 150.91 39.34 150.64 39.62C150.38 39.91 149.77 40.34 149.3 40.59C148.47 41.01 148.24 41.03 144.45 41.07L140.48 41.12C139.22 40.27 138.55 39.59 138.19 39.07C137.83 38.54 137.47 38.11 137.4 38.1C137.32 38.1 136.72 38.53 136.06 39.06L134.86 40.02C134.81 44.89 134.73 46.38 134.66 46.46C134.58 46.54 134.29 46.51 134.01 46.38C133.56 46.18 133.48 45.98 133.2 44.55C133.02 43.67 132.67 42.21 132.41 41.3C132.16 40.4 131.72 39.06 131.45 38.33C130.99 37.11 130.89 36.99 130.22 36.74C129.81 36.59 129.15 36.15 128.75 35.75C128.35 35.36 127.76 34.55 127.44 33.96C127.12 33.36 126.72 32.38 126.55 31.78C126.37 31.16 126.24 30.04 126.24 29.21C126.23 28.3 126.36 27.37 126.56 26.74C126.74 26.19 127.07 25.44 127.29 25.09C127.51 24.74 127.99 24.18 128.36 23.86C128.73 23.53 129.36 23.1 129.76 22.89L130.49 22.53C129.94 23.73 129.64 24.62 129.47 25.28C129.25 26.13 129.2 26.83 129.28 27.75C129.35 28.57 129.57 29.39 129.88 30.04L130.36 31.04C130.76 28.77 131.14 27.5 131.46 26.74C131.78 25.99 132.44 24.75 132.94 23.99C133.44 23.24 134.24 22.21 134.73 21.7L135.62 20.79C134.61 19.65 134.07 18.83 133.77 18.22C133.42 17.5 133.19 16.72 133.13 15.93C133.05 15.08 133.1 14.52 133.31 13.97C133.47 13.54 133.8 12.92 134.04 12.59C134.28 12.26 134.96 11.73 135.55 11.41C136.16 11.07 137.24 10.7 138.04 10.54C138.89 10.37 140.43 10.26 141.88 10.26C143.52 10.26 144.84 10.37 145.96 10.6C146.86 10.79 148.18 11.17 148.88 11.45C149.59 11.73 150.58 12.22 151.08 12.54C151.58 12.86 152.3 13.42 152.68 13.79C153.06 14.17 153.53 14.8 153.73 15.2C153.93 15.6 154.1 16.16 154.1 16.44C154.1 16.72 153.95 17.19 153.76 17.49L153.42 18.04C154.73 18.52 155.47 18.98 155.91 19.36C156.35 19.74 156.82 20.28 156.96 20.56C157.1 20.84 157.19 21.1 157.17 21.15C157.14 21.2 156.5 21.03 155.75 20.78C154.99 20.53 153.55 20.15 152.54 19.93C151.18 19.65 150.06 19.55 148.15 19.55C146.02 19.56 145.3 19.63 143.85 20.01C142.89 20.26 141.54 20.76 140.83 21.11C140.13 21.47 139.04 22.14 138.41 22.6C137.78 23.06 136.84 23.96 136.32 24.59C135.81 25.22 135.16 26.19 134.88 26.74C134.61 27.29 134.24 28.2 134.06 28.76C133.88 29.31 133.74 30.3 133.74 30.95C133.74 31.61 133.83 32.47 133.94 32.88C134.05 33.28 134.38 33.96 134.69 34.39C135 34.82 135.29 35.15 135.34 35.12C135.39 35.1 135.56 34.54 135.72 33.88C135.87 33.23 136.31 32.12 136.68 31.42C137.05 30.73 137.68 29.79 138.09 29.35C138.52 28.86 139.3 28.3 140.01 27.96C140.95 27.51 141.42 27.4 142.3 27.41C143.03 27.42 143.71 27.57 144.36 27.86C144.89 28.1 145.33 28.34 145.33 28.39C145.32 28.44 144.97 28.59 144.54 28.73C144.11 28.86 143.23 29.23 142.58 29.55C141.92 29.88 140.97 30.57 140.4 31.14C139.8 31.73 139.18 32.59 138.88 33.24C138.6 33.85 138.39 34.36 138.41 34.39C138.43 34.42 139.15 34.07 140.01 33.63C140.86 33.18 142.43 32.53 143.48 32.18C144.54 31.83 145.94 31.42 146.6 31.26L147.79 30.99C149.27 31.95 149.99 32.63 150.35 33.11C150.7 33.58 151.09 34.3 151.22 34.69C151.34 35.08 151.53 35.44 151.63 35.48C151.73 35.52 152.35 35.46 153 35.34C153.66 35.22 154.64 34.96 155.2 34.75C155.85 34.5 156.51 34.06 157.07 33.48C157.73 32.82 158.02 32.34 158.24 31.55C158.46 30.78 158.51 30.14 158.43 29.17C158.36 28.44 158.11 27.24 157.87 26.51C157.63 25.78 157.46 25.14 157.5 25.09C157.53 25.04 157.92 25.22 158.35 25.49C158.78 25.76 159.4 26.25 159.72 26.59C160.04 26.92 160.48 27.61 160.71 28.11C160.93 28.62 161.15 29.57 161.19 30.22C161.25 31.05 161.18 31.77 160.95 32.6C160.76 33.26 160.32 34.25 159.96 34.8C159.6 35.35 159.13 35.93 158.92 36.08C158.58 36.33 158.93 36.36 162.5 36.36C165.84 36.36 166.62 36.41 167.55 36.7C168.16 36.88 168.79 37.13 168.96 37.25C169.23 37.43 169.1 37.53 168.05 37.98C167.37 38.26 166.24 38.83 165.54 39.25C164.83 39.66 163.75 40.49 163.13 41.11C162.51 41.72 161.83 42.59 161.63 43.04C161.4 43.54 161.24 44.25 161.24 44.83C161.24 45.41 161.37 46.06 161.58 46.48C161.77 46.85 162.18 47.39 162.49 47.67C162.81 47.94 163.5 48.29 164.03 48.45C164.56 48.6 165.26 48.72 165.58 48.72C166.08 48.72 166.2 48.8 166.3 49.22C166.37 49.5 166.37 51.33 166.3 53.3C166.24 55.26 166.06 57.9 165.9 59.16C165.74 60.42 165.4 62.44 165.15 63.65C164.9 64.86 164.36 66.83 163.96 68.04C163.56 69.25 162.84 71.06 162.36 72.07C161.88 73.08 161 74.64 160.4 75.54C159.8 76.44 158.69 77.84 157.92 78.66C157.15 79.47 155.88 80.6 155.08 81.17C154.29 81.74 152.98 82.54 152.18 82.95C151.37 83.36 150.61 83.69 150.48 83.7C150.34 83.7 150.29 83.88 150.35 84.21C150.4 84.48 150.49 85.16 150.56 85.72C150.62 86.29 150.57 87.2 150.43 87.82C150.3 88.43 149.93 89.46 149.6 90.11C149.27 90.77 148.68 91.67 148.3 92.11L147.6 92.93C149.21 92.73 150.2 92.4 151.08 91.97C152.04 91.5 153.01 90.81 153.9 89.99C154.64 89.3 155.6 88.24 156.03 87.64C156.46 87.04 157.07 86.01 157.38 85.35C157.69 84.7 158.05 83.67 158.17 83.08L158.4 82C162.51 79.98 164.12 79.1 164.62 78.75C165.13 78.41 165.86 77.79 166.25 77.39C166.63 76.98 167.12 76.32 167.33 75.92C167.63 75.33 167.73 74.66 167.84 72.62C167.91 71.21 168.11 69.52 168.28 68.87C168.45 68.21 168.76 67.35 168.96 66.94C169.17 66.54 169.51 66.02 169.72 65.8C169.94 65.57 170.34 65.34 170.62 65.29C170.91 65.24 171.35 65.34 171.68 65.52C171.98 65.7 172.44 66.17 172.7 66.58L173.16 67.31C173.62 66.6 174.02 65.82 174.35 65.11C174.67 64.41 175.11 63.13 175.32 62.27C175.52 61.42 175.69 60.14 175.7 59.43C175.7 58.73 175.57 57.66 175.41 57.05C175.25 56.45 175.01 55.75 174.87 55.5L174.63 55.04C174.46 55.89 174.29 56.67 174.13 57.33C173.97 57.98 173.64 58.93 173.38 59.43C173.13 59.94 172.71 60.64 172.45 60.99L171.97 61.63C171 60.5 170.41 59.51 170.02 58.7C169.63 57.9 169.18 56.7 169.01 56.05C168.85 55.39 168.67 54.15 168.62 53.3C168.55 52.28 168.62 51.3 168.79 50.46C168.94 49.75 169.28 48.72 169.54 48.17C169.8 47.62 170.33 46.75 170.7 46.26C171.08 45.76 171.89 44.95 172.49 44.47C173.1 43.98 173.65 43.59 173.73 43.59C173.8 43.59 173.82 43.88 173.77 44.23C173.72 44.58 173.8 45.43 173.93 46.11C174.07 46.79 174.35 47.72 174.54 48.17L174.9 48.99C175.94 47.01 176.57 46 176.98 45.47L177.71 44.51C177.26 41.31 176.9 39.48 176.62 38.37C176.34 37.26 175.93 35.76 175.72 35.03L175.33 33.7C171.92 35.48 171.75 35.54 171.63 35.23C171.56 35.04 171.2 34.07 170.83 33.06C170.46 32.05 169.79 30.4 169.33 29.4C168.87 28.39 168 26.66 167.4 25.55C166.8 24.44 165.84 22.79 165.28 21.89C164.71 20.98 164.1 20.01 163.93 19.74L163.62 19.23C165.67 18.27 166.89 17.84 167.64 17.65C168.69 17.39 169.68 17.31 171.85 17.31C173.97 17.31 175.01 17.39 175.97 17.63C176.67 17.81 177.79 18.23 178.44 18.55C179.62 19.14 179.63 19.15 179.68 19.96C179.71 20.42 179.6 21.24 179.43 21.8C179.27 22.35 178.88 23.3 178.58 23.9C178.28 24.51 177.77 25.37 177.47 25.83C177.16 26.28 176.41 27.16 175.8 27.79C175.19 28.42 174.73 28.98 174.78 29.02C174.83 29.07 175.53 28.83 176.34 28.51C177.14 28.18 178.29 27.63 178.9 27.29C179.5 26.95 180.66 26.24 181.46 25.71C182.27 25.17 183.11 24.59 183.33 24.41C183.65 24.15 183.79 23.73 184 22.35C184.15 21.39 184.31 19.95 184.37 19.14L184.47 17.67C182.55 15.83 181.42 14.91 180.72 14.44C180.02 13.98 178.93 13.34 178.3 13.03C177.27 12.51 177 12.45 175.47 12.46C174.54 12.46 172.91 12.58 171.85 12.74C170.8 12.89 168.94 13.27 167.73 13.57C166.53 13.87 164.73 14.38 163.74 14.71L161.95 15.29C160.33 13.34 158.95 11.89 157.84 10.83C156.73 9.76 155.06 8.35 154.13 7.69C153.21 7.04 151.81 6.13 151.03 5.68L149.62 4.85C143.31 4.89 141.11 5 139.64 5.2C138.38 5.37 136.32 5.71 135.07 5.96L132.78 6.41C130.58 8.68 129.96 9.55 129.36 10.71C128.9 11.62 128.31 13.02 128.05 13.83C127.8 14.63 127.49 15.87 127.36 16.58L127.13 17.86C126.51 16.01 126.06 14.94 125.73 14.29C125.4 13.63 124.88 12.72 124.57 12.27C124.26 11.82 123.54 10.91 122.98 10.26C122.42 9.6 121.27 8.48 120.41 7.76C119.56 7.04 118.17 6 117.31 5.45C116.46 4.89 115.24 4.18 114.61 3.87C113.98 3.55 113.37 3.31 113.24 3.32C113.12 3.34 112.19 3.41 111.18 3.49Z" />
		<path class="shp0" d="M119.06 12.8C119.21 13.26 119.38 14.14 119.44 14.74C119.52 15.53 119.47 16.16 119.24 16.94C119.06 17.55 118.7 18.37 118.42 18.77C118.15 19.18 117.52 19.81 117.02 20.17C116.53 20.54 115.63 21.05 115.03 21.3C114.42 21.55 113.6 21.82 113.2 21.89L112.46 22.01C114.02 22.87 114.85 23.42 115.3 23.78C115.75 24.14 116.44 24.77 116.84 25.17C117.23 25.58 117.92 26.49 118.38 27.2C118.84 27.9 119.47 29.06 119.79 29.76C120.11 30.47 120.64 31.87 120.97 32.88C121.39 34.17 121.61 34.63 121.72 34.43C121.8 34.28 121.97 33.58 122.09 32.88C122.21 32.15 122.26 30.85 122.2 29.85C122.14 28.78 121.94 27.59 121.67 26.74C121.43 25.99 120.92 24.83 120.55 24.18C120.17 23.52 119.77 22.85 119.64 22.68C119.45 22.42 119.54 22.25 120.2 21.54C120.62 21.07 121.19 20.26 121.46 19.74C121.85 18.98 121.97 18.43 122.03 17.22C122.11 15.87 122.06 15.53 121.68 14.67C121.42 14.07 120.92 13.38 120.42 12.93C119.96 12.52 119.41 12.13 119.18 12.07C118.78 11.95 118.78 11.96 119.06 12.8Z" />
		<path class="shp1" d="M66.32 18.77C66.32 19.68 66.35 20.09 66.39 19.69C66.42 19.29 66.42 18.54 66.39 18.04C66.35 17.54 66.32 17.87 66.32 18.77Z" />
		<path class="shp2" d="M108.88 31.84C108.63 32.02 108.28 32.5 108.09 32.89C107.86 33.37 107.76 33.97 107.77 34.71C107.78 35.52 107.93 36.1 108.32 36.91C108.63 37.55 109.19 38.29 109.65 38.7L110.45 39.39C113.71 39.38 115.03 39.43 115.49 39.49C116.22 39.59 116.42 39.53 117.22 38.98C117.72 38.65 118.44 37.96 118.82 37.46C119.2 36.95 119.51 36.46 119.5 36.36C119.5 36.26 119.03 35.83 118.45 35.41C117.88 34.99 117.26 34.6 117.08 34.54C116.85 34.46 116.73 34.56 116.65 34.94C116.58 35.21 116.38 35.75 116.19 36.13C116 36.51 115.54 37.02 115.16 37.26C114.79 37.51 114.15 37.77 113.74 37.84C113.3 37.91 112.72 37.86 112.28 37.72C111.88 37.59 111.24 37.19 110.85 36.83C110.47 36.47 110.07 35.88 109.96 35.53C109.85 35.18 109.77 34.52 109.79 34.07C109.8 33.61 109.99 32.91 110.22 32.48C110.63 31.73 110.63 31.72 110.27 31.62C110.07 31.56 109.77 31.51 109.61 31.51C109.45 31.5 109.12 31.65 108.88 31.84Z" />
		<path class="shp3" d="M110.66 31.82C110.61 31.9 110.64 32.25 110.73 32.6C110.82 32.95 111.11 33.53 111.37 33.88C111.64 34.24 112.01 34.63 112.2 34.75C112.4 34.88 112.58 34.96 112.62 34.94C112.65 34.91 112.59 34.26 112.48 33.48C112.3 32.2 112.24 32.06 111.82 31.96C111.57 31.9 111.23 31.81 111.06 31.76C110.9 31.71 110.72 31.74 110.66 31.82Z" />
		<path class="shp2" d="M146.64 33.27C146.42 33.3 146.23 33.38 146.23 33.43C146.23 33.48 146.44 33.93 146.69 34.43C146.96 34.98 147.14 35.66 147.14 36.13C147.14 36.56 146.96 37.27 146.73 37.72C146.46 38.26 146.04 38.72 145.5 39.05C144.89 39.43 144.44 39.57 143.8 39.56C143.33 39.56 142.67 39.45 142.34 39.31C142.01 39.17 141.5 38.79 141.2 38.47C140.89 38.14 140.52 37.47 140.37 36.97L140.1 36.07L137.45 37.91C137.94 38.8 138.42 39.4 138.82 39.83C139.22 40.25 139.8 40.72 140.1 40.88C140.56 41.12 141.16 41.15 143.76 41.07L146.87 40.96C148.01 39.79 148.51 39.09 148.73 38.64C148.95 38.19 149.18 37.41 149.26 36.91C149.33 36.4 149.34 35.68 149.27 35.3C149.2 34.87 148.9 34.34 148.47 33.88C148.06 33.43 147.64 33.15 147.42 33.17C147.22 33.19 146.87 33.23 146.64 33.27Z" />
		<path class="shp3" d="M142.24 34.85L141.46 35.26C142.11 35.86 142.5 36.16 142.75 36.31C143 36.47 143.4 36.64 143.62 36.7C144.02 36.81 144.02 36.8 143.76 36.31C143.61 36.03 143.44 35.5 143.4 35.12C143.35 34.74 143.25 34.44 143.17 34.44C143.09 34.45 142.67 34.63 142.24 34.85Z" />
		<path class="shp0" d="M118.78 38.69C118.49 39.45 118.08 40.1 117.56 40.61C117.12 41.04 116.37 41.57 115.89 41.79C115.33 42.04 114.63 42.19 113.88 42.2C113.1 42.21 112.74 42.29 112.74 42.45C112.74 42.57 113.01 42.89 113.33 43.16C113.66 43.43 114.2 43.76 114.52 43.89C114.85 44.03 115.53 44.14 116.03 44.14C116.54 44.14 117.26 44.01 117.63 43.86C118.01 43.7 118.55 43.35 118.84 43.08C119.13 42.81 119.51 42.3 119.68 41.94C119.86 41.59 120.07 40.97 120.13 40.57C120.21 40.11 120.16 39.5 119.99 38.92C119.84 38.42 119.61 37.9 119.47 37.77C119.25 37.58 119.14 37.73 118.78 38.69Z" />
		<path class="shp1" d="M29.83 43.59C28.98 43.68 27.49 43.89 26.54 44.05C25.58 44.21 23.81 44.59 22.6 44.89C21.39 45.2 19.71 45.78 18.85 46.18C18 46.58 16.47 47.46 15.46 48.13C14.38 48.86 12.89 50.1 11.8 51.19C10.78 52.21 9.47 53.76 8.86 54.67C8.25 55.58 7.45 56.96 7.08 57.74C6.71 58.52 6.19 59.8 5.93 60.58C5.67 61.36 5.28 62.78 5.07 63.74C4.74 65.22 4.68 66.09 4.68 69.6C4.68 73.06 4.73 73.92 5.02 75C5.21 75.71 5.58 76.82 5.85 77.48C6.12 78.13 6.58 79.04 6.87 79.49L7.4 80.31C7.59 78.61 7.75 77.75 7.87 77.29C7.99 76.84 8.35 75.98 8.66 75.39C8.98 74.8 9.61 73.97 10.07 73.56L10.89 72.8C10.8 70.68 10.89 69.48 11.04 68.78C11.18 68.07 11.61 66.87 11.98 66.12C12.35 65.36 12.99 64.39 13.42 63.95C13.84 63.51 14.66 62.92 15.24 62.62C15.81 62.33 16.86 61.97 17.57 61.82C18.27 61.66 19.12 61.54 19.45 61.54L20.04 61.54C20.22 58.91 20.42 57.78 20.59 57.33C20.77 56.87 21.22 56.05 21.59 55.5C22.03 54.84 22.74 54.15 23.62 53.52C24.37 52.98 25.43 52.37 25.99 52.15C26.79 51.83 27.37 51.75 28.83 51.76C30.33 51.76 30.82 51.84 31.57 52.18C32.07 52.41 32.84 52.84 33.26 53.13L34.04 53.66C34.46 52.46 34.95 51.65 35.39 51.1C35.82 50.55 36.63 49.83 37.17 49.5C37.71 49.18 38.69 48.78 39.35 48.61C40.22 48.39 40.88 48.35 41.82 48.44C42.52 48.51 43.59 48.73 44.2 48.94C44.8 49.14 45.66 49.52 46.12 49.79C46.57 50.06 47.33 50.67 47.81 51.15C48.29 51.62 48.81 52.26 48.96 52.57C49.16 52.97 49.32 53.08 49.55 53C49.73 52.94 50.2 52.76 50.6 52.61C51.01 52.45 52.04 52.3 52.89 52.27C53.75 52.24 54.47 52.19 54.5 52.16C54.52 52.13 53.95 51.56 53.22 50.9C52.48 50.23 51.27 49.24 50.51 48.7C49.76 48.15 48.32 47.28 47.31 46.76C46.3 46.24 44.49 45.48 43.28 45.07C42.08 44.67 40.1 44.17 38.89 43.96C37.67 43.75 35.51 43.55 34.04 43.51C32.58 43.47 30.69 43.5 29.83 43.59ZM91.77 47.35C91.84 47.85 92.06 48.96 92.27 49.82C92.48 50.67 92.95 52.08 93.31 52.93C93.67 53.79 94.37 55.11 94.86 55.86C95.36 56.62 96.53 58 97.48 58.93C98.82 60.26 99.19 60.73 99.19 61.13C99.19 61.41 99.39 62.46 99.65 63.46C99.91 64.54 100.48 66.05 101.01 67.13C101.56 68.26 102.3 69.4 102.93 70.1C103.49 70.73 104.04 71.25 104.14 71.25C104.24 71.25 104.11 70.73 103.86 70.1C103.61 69.47 103.22 68.26 102.99 67.4C102.65 66.09 102.59 65.37 102.59 62.82C102.59 60.64 102.68 59.47 102.9 58.61C103.06 57.96 103.25 57.3 103.31 57.14C103.4 56.94 102.99 56.65 101.72 56C100.78 55.53 99.32 54.61 98.46 53.97C97.61 53.33 96.22 52.07 95.38 51.17C94.55 50.28 93.44 48.93 92.93 48.17C92.42 47.41 91.92 46.71 91.82 46.61C91.71 46.5 91.69 46.76 91.77 47.35Z" />
		<path class="shp0" d="M117.68 46.78C117.23 46.9 116.49 47.18 116.03 47.39C115.58 47.6 114.9 48.11 114.52 48.52C114.14 48.93 113.75 49.6 113.65 50C113.55 50.4 113.52 51.08 113.59 51.51C113.65 51.94 113.86 52.6 114.04 52.98C114.23 53.36 114.63 53.85 114.92 54.08C115.43 54.47 115.46 54.57 115.52 56.06C115.57 57.47 115.65 57.78 116.35 59.22C116.84 60.2 117.46 61.14 118 61.68C118.48 62.16 119.36 62.8 119.97 63.1C120.78 63.5 121.4 63.66 122.35 63.72C123.2 63.76 123.93 63.69 124.54 63.49C125.39 63.22 125.53 63.22 126.37 63.5C127.02 63.71 127.66 63.77 128.57 63.7C129.36 63.64 130.2 63.45 130.77 63.18C131.27 62.94 132.18 62.25 132.78 61.64C133.39 61.03 134.11 60.08 134.38 59.53C134.66 58.97 135.01 58.07 135.16 57.51C135.31 56.96 135.43 56.07 135.43 55.54C135.43 54.68 135.5 54.51 136.12 53.89C136.5 53.52 136.91 52.88 137.03 52.47C137.16 52.07 137.26 51.35 137.26 50.87C137.26 50.37 137.11 49.71 136.91 49.31C136.72 48.94 136.37 48.45 136.14 48.23C135.9 48.01 135.29 47.63 134.79 47.38C134.29 47.13 133.44 46.84 132.92 46.72C132.39 46.61 131.23 46.52 130.35 46.53C129.47 46.53 128.38 46.62 127.93 46.72C127.48 46.83 126.71 47.11 126.24 47.36C125.37 47.8 125.37 47.8 124.77 47.45C124.44 47.26 123.72 46.97 123.17 46.81C122.52 46.62 121.52 46.52 120.33 46.54C119.33 46.55 118.13 46.66 117.68 46.78Z" />
		<path class="shp1" d="M81.55 47.8L81.08 48.54C81.58 50.83 81.63 51.7 81.56 53.02C81.51 54.03 81.29 55.51 81.08 56.32C80.87 57.13 80.46 58.28 80.16 58.88C79.87 59.49 79.34 60.33 78.98 60.76C78.35 61.52 78.32 61.53 77.95 61.22C77.74 61.04 77.25 60.24 76.86 59.43C76.48 58.63 76.03 57.35 75.87 56.6C75.71 55.84 75.54 55.2 75.49 55.18C75.44 55.15 75.23 55.6 75.01 56.18C74.77 56.84 74.59 57.85 74.54 58.88C74.48 59.96 74.55 60.98 74.72 61.82C74.87 62.52 75.25 63.72 75.56 64.47C75.88 65.23 76.33 66.17 76.57 66.58L77 67.31C77.73 66.17 78.24 65.68 78.6 65.48L79.26 65.11C80.45 65.75 80.77 66.14 81.21 67.04C81.58 67.78 81.91 68.84 82.08 69.87C82.24 70.78 82.36 72.22 82.37 73.08C82.37 73.97 82.49 74.95 82.64 75.37C82.79 75.77 83.13 76.42 83.41 76.82C83.69 77.21 84.45 77.94 85.1 78.43C85.76 78.92 87.53 79.93 89.04 80.66L91.78 81.99C92.14 83.67 92.49 84.7 92.8 85.35C93.11 86.01 93.72 87.04 94.15 87.64C94.58 88.24 95.54 89.3 96.29 89.99C97.17 90.81 98.15 91.5 99.1 91.97C99.98 92.4 100.97 92.73 101.57 92.81L102.58 92.93C101.5 91.67 100.92 90.77 100.59 90.11C100.25 89.46 99.88 88.43 99.75 87.82C99.62 87.2 99.56 86.29 99.63 85.72C99.69 85.16 99.79 84.5 99.84 84.25C99.94 83.83 99.86 83.76 98.89 83.39C98.3 83.17 96.96 82.42 95.9 81.72C94.77 80.98 93.35 79.83 92.45 78.92C91.6 78.08 90.34 76.52 89.64 75.46C88.93 74.4 87.99 72.77 87.55 71.84C87.11 70.91 86.42 69.16 86.02 67.95C85.61 66.74 85.08 64.74 84.83 63.51C84.58 62.28 84.25 60.19 84.09 58.88C83.93 57.58 83.78 54.81 83.76 52.75C83.72 49.48 83.67 48.92 83.38 48.44C83.19 48.14 82.87 47.71 82.65 47.48C82.44 47.25 82.21 47.06 82.15 47.07C82.08 47.07 81.82 47.4 81.55 47.8ZM117.63 48.63C117.16 48.78 116.48 49.17 116.13 49.5C115.74 49.87 115.5 50.26 115.51 50.53C115.51 50.94 115.54 50.95 115.82 50.68C115.99 50.52 116.66 50.25 117.31 50.08C118.17 49.86 119.01 49.8 120.33 49.85C121.72 49.91 122.39 50.03 123.08 50.34C123.58 50.57 124.3 50.99 124.68 51.29L125.37 51.83C126.43 50.99 127.15 50.57 127.65 50.34C128.33 50.04 129.03 49.91 130.31 49.86C131.26 49.81 132.54 49.88 133.14 50C133.75 50.12 134.43 50.33 134.65 50.47C134.88 50.62 135.16 50.71 135.27 50.69C135.39 50.66 135.3 50.38 135.04 50C134.8 49.64 134.21 49.16 133.69 48.91C132.95 48.54 132.43 48.44 130.95 48.38C129.6 48.33 128.83 48.39 128.02 48.62C127.42 48.79 126.59 49.12 126.19 49.36L125.46 49.79C122.79 48.47 122.64 48.44 120.62 48.4C119.15 48.37 118.24 48.44 117.63 48.63Z" />
		<path class="shp2" d="M39.9 53.61C39.55 53.79 39.07 54.23 38.84 54.58C38.61 54.93 38.37 55.47 38.31 55.77C38.23 56.2 38.54 57.13 39.68 59.89C40.49 61.86 41.89 65.4 42.8 67.77C43.71 70.14 44.72 72.88 45.05 73.86C45.39 74.84 45.7 75.65 45.75 75.65C45.8 75.65 46.03 74.81 46.26 73.77C46.49 72.74 46.79 70.98 46.94 69.87C47.1 68.58 47.17 66.65 47.13 64.47C47.09 62.31 46.96 60.59 46.78 59.71C46.62 58.95 46.3 57.73 46.08 56.98C45.8 56.09 45.44 55.37 45.02 54.89C44.67 54.49 44.05 54 43.65 53.79C43.23 53.58 42.42 53.39 41.73 53.35C40.82 53.29 40.38 53.36 39.9 53.61Z" />
		<path class="shp1" d="M117.23 54.69C117.14 54.76 117.08 55.16 117.09 55.57C117.11 56.01 117.29 56.58 117.54 56.94C117.77 57.29 118.16 57.72 118.41 57.91C118.66 58.1 119.2 58.31 119.6 58.37C120.23 58.47 120.4 58.42 120.84 58C121.2 57.64 121.34 57.33 121.35 56.82C121.35 56.42 121.23 56.02 121.07 55.86C120.8 55.62 120.78 55.64 120.78 56.09C120.79 56.37 120.66 56.72 120.5 56.87C120.34 57.02 119.93 57.14 119.59 57.14C119.12 57.14 118.82 57 118.4 56.55C118.1 56.22 117.74 55.64 117.62 55.26C117.49 54.87 117.32 54.62 117.23 54.69ZM133.34 54.86C133.27 55.06 133.06 55.55 132.87 55.95C132.67 56.36 132.33 56.79 132.1 56.93C131.87 57.06 131.39 57.14 131.04 57.11C130.51 57.06 130.35 56.94 130.1 56.41C129.81 55.78 129.81 55.78 129.6 56.18C129.49 56.41 129.39 56.76 129.39 56.96C129.39 57.16 129.66 57.59 129.99 57.91C130.52 58.43 130.66 58.48 131.31 58.37C131.72 58.3 132.23 58.12 132.46 57.97C132.68 57.82 133.03 57.43 133.24 57.1C133.44 56.77 133.65 56.22 133.71 55.86C133.77 55.51 133.74 55.06 133.64 54.86L133.46 54.49" />
		<path class="shp2" d="M27.91 56.69C27.51 56.84 26.87 57.17 26.49 57.42C26.11 57.67 25.58 58.22 25.3 58.64C24.89 59.27 24.8 59.61 24.8 60.52C24.81 61.52 24.92 61.85 25.95 63.83C26.58 65.04 27.63 66.77 28.28 67.68C28.93 68.58 30.1 70.03 30.87 70.88C31.64 71.74 32.9 73.01 33.66 73.7C34.42 74.4 35.69 75.45 36.47 76.04C37.25 76.63 37.97 77.11 38.07 77.11C38.17 77.11 38.21 76.92 38.17 76.7C38.12 76.47 37.7 74.72 37.23 72.8C36.77 70.89 35.91 67.88 35.33 66.12C34.76 64.36 33.97 62.21 33.58 61.36C33.2 60.5 32.55 59.27 32.14 58.63C31.65 57.87 31.13 57.31 30.66 57.04C30.25 56.81 29.63 56.58 29.28 56.52C28.91 56.46 28.33 56.53 27.91 56.69ZM52.32 57.21C51.83 57.33 51.22 57.66 50.89 57.97C50.58 58.27 50.24 58.75 50.14 59.02C49.98 59.47 50.03 59.58 50.54 60.03C50.86 60.31 51.5 61.03 51.98 61.63C52.46 62.24 53.12 63.18 53.45 63.74C53.77 64.29 54.28 65.32 54.57 66.03C54.87 66.73 55.27 67.97 55.48 68.78C55.68 69.58 55.91 71.01 55.97 71.95C56.04 72.9 56.16 73.7 56.23 73.74C56.31 73.78 56.61 73.5 56.9 73.13C57.19 72.75 57.69 71.92 58 71.29C58.31 70.66 58.7 69.59 58.86 68.91C59.07 68 59.13 67.11 59.06 65.48C59.01 64.14 58.84 62.78 58.62 62C58.43 61.29 58.02 60.35 57.71 59.89C57.4 59.44 56.83 58.79 56.44 58.44C56.05 58.1 55.4 57.67 55 57.5C54.59 57.33 54.02 57.15 53.72 57.1C53.41 57.04 52.78 57.09 52.32 57.21Z" />
		<path class="shp1" d="M63.57 64.01C63.57 64.72 63.6 64.97 63.64 64.56C63.68 64.16 63.68 63.58 63.64 63.28C63.6 62.98 63.57 63.31 63.57 64.01Z" />
		<path class="shp2" d="M18.03 66.57C17.62 66.71 17.01 67.15 16.65 67.54C16.3 67.93 15.9 68.65 15.75 69.15C15.6 69.65 15.49 70.63 15.49 71.34C15.49 72.42 15.59 72.81 16.09 73.81C16.43 74.47 17.12 75.53 17.64 76.18C18.15 76.83 19.15 77.84 19.86 78.44C20.56 79.03 21.71 79.9 22.42 80.37C23.12 80.84 24.54 81.66 25.58 82.19C26.62 82.72 27.49 83.07 27.54 82.97C27.59 82.87 27.5 82.68 27.33 82.56C27.17 82.43 26.54 81.59 25.93 80.68C25.32 79.77 24.39 78.21 23.86 77.2C23.33 76.19 22.53 74.42 22.08 73.26C21.64 72.1 21.02 70.25 20.71 69.14C20.4 68.03 20.13 66.96 20.09 66.76C20.05 66.49 19.88 66.38 19.4 66.35C19.05 66.33 18.43 66.43 18.03 66.57ZM120.88 69.81C120.18 69.9 118.82 70.14 117.86 70.34C116.91 70.53 115.28 70.96 114.24 71.29C112.95 71.7 112.37 71.97 112.37 72.16C112.37 72.31 112.49 72.85 112.62 73.35C112.75 73.86 113.05 74.68 113.27 75.19C113.49 75.69 113.98 76.6 114.34 77.2L115 78.3C115.67 75.74 116.1 74.51 116.38 73.9C116.67 73.3 117.02 72.65 117.16 72.46C117.39 72.14 117.44 72.17 117.89 72.92C118.16 73.36 118.55 73.89 118.76 74.09L119.15 74.45C119.64 73.76 119.91 73.33 120.06 73.05L120.33 72.54C121.33 73.86 121.75 74.33 121.92 74.44C122.16 74.59 122.32 74.55 122.63 74.27C122.85 74.07 123.17 73.62 123.36 73.26C123.66 72.68 123.7 72.66 123.83 72.99C123.91 73.19 124.18 73.67 124.44 74.05C124.7 74.43 125.01 74.78 125.14 74.83C125.26 74.87 125.53 74.83 125.73 74.73C125.93 74.63 126.33 74.11 126.62 73.58L127.15 72.62C127.46 73.47 127.74 73.91 127.97 74.15C128.26 74.44 128.51 74.54 128.8 74.47C129.02 74.41 129.48 73.95 129.8 73.45L130.4 72.53C130.93 73.45 131.21 73.87 131.38 74.04C131.67 74.35 131.7 74.35 132.11 73.95C132.35 73.72 132.7 73.23 132.89 72.85C133.08 72.47 133.32 72.2 133.42 72.26C133.52 72.31 133.84 72.82 134.13 73.4C134.42 73.98 134.87 75.13 135.14 75.96C135.4 76.8 135.61 77.66 135.61 77.89C135.6 78.21 135.65 78.25 135.84 78.09C135.97 77.97 136.46 77.15 136.93 76.26C137.4 75.37 137.92 74.14 138.08 73.54C138.23 72.93 138.36 72.29 138.36 72.12C138.36 71.94 138.22 71.76 138.04 71.72C137.86 71.68 137.06 71.44 136.26 71.19C135.45 70.94 133.97 70.57 132.96 70.36C131.95 70.15 130.43 69.89 129.58 69.79C128.72 69.68 126.7 69.61 125.09 69.62C123.48 69.64 121.59 69.72 120.88 69.81Z" />
		<path class="shp1" d="M74.01 74.3C72.9 75.7 71.49 77.29 70.88 77.84C70.28 78.4 69.25 79.13 68.61 79.47L67.44 80.09C69.85 80.99 70.88 81.43 71.28 81.64C71.69 81.84 72.51 82.39 73.11 82.85C73.72 83.3 74.79 84.25 75.49 84.96L76.78 86.24C77.48 85.38 78.18 84.89 78.79 84.6C79.49 84.26 80.42 84 81.35 83.88C82.34 83.76 83.4 83.76 84.64 83.89C85.65 83.99 86.78 84.16 87.16 84.26C87.61 84.37 87.88 84.37 87.94 84.25C87.99 84.15 87.89 84.02 87.71 83.96C87.53 83.91 86.85 83.66 86.2 83.42C85.55 83.17 84.52 82.65 83.91 82.25C83.31 81.86 82.41 81.14 81.92 80.65C81.43 80.16 80.69 79.27 80.28 78.67C79.87 78.06 79.26 76.91 78.93 76.1C78.61 75.3 78.34 74.51 78.34 74.36C78.34 74.21 77.82 73.57 77.18 72.93L76.03 71.77" />
		<path class="shp2" d="M14.09 76.75C13.74 76.84 13.26 77.1 13.03 77.33C12.8 77.56 12.54 78 12.45 78.3C12.37 78.6 12.24 79.14 12.18 79.49C12.12 79.84 12.16 80.71 12.27 81.41C12.4 82.24 12.68 83.05 13.05 83.7C13.37 84.26 14.08 85.17 14.64 85.72C15.19 86.28 16.14 87.06 16.75 87.46C17.35 87.85 18.46 88.44 19.22 88.77C19.97 89.09 21.29 89.56 22.14 89.81C23 90.06 24.19 90.32 24.8 90.39L25.9 90.52C24.34 89.16 23.4 88.26 22.82 87.65C22.23 87.04 21.2 85.84 20.53 84.99C19.86 84.14 18.81 82.61 18.21 81.6C17.6 80.59 16.83 79.11 16.48 78.3C16.14 77.49 15.85 76.82 15.84 76.81C15.84 76.8 15.58 76.74 15.28 76.69C14.98 76.64 14.44 76.67 14.09 76.75Z" />
		<path class="shp1" d="M50.84 79.72C50.49 80.25 49.8 81.09 49.31 81.6C48.81 82.1 47.87 82.9 47.22 83.36C46.56 83.83 45.29 84.59 44.38 85.04C43.48 85.49 41.95 86.12 41 86.43C40.04 86.75 38.39 87.18 37.34 87.38C36.28 87.59 35.21 87.79 34.96 87.84C34.68 87.89 34.57 87.99 34.68 88.08C34.78 88.17 35.28 88.37 35.78 88.53C36.28 88.69 37.48 88.96 38.43 89.12C39.65 89.33 40.69 89.39 41.91 89.32C42.87 89.26 44.27 89.04 45.02 88.82C45.78 88.61 47.05 88.09 47.86 87.67C48.66 87.25 49.8 86.45 50.39 85.9C51.04 85.29 51.64 84.5 51.93 83.89C52.29 83.12 52.41 82.59 52.41 81.69C52.41 80.85 52.29 80.24 52.01 79.63C51.79 79.15 51.58 78.76 51.54 78.76C51.5 78.76 51.19 79.19 50.84 79.72Z" />
		<path class="shp3" d="M118.57 79.32C118.41 79.43 118.07 79.9 117.82 80.37C117.56 80.84 117.22 81.72 117.06 82.33C116.9 82.93 116.65 84.29 116.51 85.35C116.36 86.41 116.19 88.1 116.13 89.11L116.01 90.94C117.49 91.93 118.32 92.67 118.82 93.23C119.72 94.23 119.72 94.23 120.21 93.93C120.48 93.76 120.96 93.48 121.29 93.29L121.88 92.95L123.26 94.28L125.37 92.77L127.47 94.28C128.75 93.02 128.76 93.02 129.39 93.3C129.74 93.45 130.25 93.72 130.51 93.9L131 94.23C132.52 92.69 133.4 91.91 133.93 91.5L134.9 90.75C134.72 88.91 134.55 87.34 134.39 86.08C134.24 84.82 133.91 83.09 133.67 82.24C133.42 81.38 133.01 80.37 132.77 79.99C132.5 79.58 132.12 79.26 131.82 79.19C131.54 79.13 130.98 79.12 130.58 79.18C130.18 79.25 129.4 79.58 128.84 79.93C128.29 80.27 127.42 80.66 126.92 80.78C126.41 80.91 125.48 80.97 124.82 80.92C123.86 80.84 123.32 80.66 122.03 79.97C120.83 79.34 120.23 79.12 119.65 79.13C119.22 79.13 118.74 79.22 118.57 79.32Z" />
		<path class="shp1" d="M166.81 81.91C166.41 82.21 165.76 82.62 165.36 82.83C164.95 83.04 164.09 83.41 163.43 83.64L162.24 84.07L160.69 87.37C161.96 87.65 163.1 87.73 164.03 87.73C164.96 87.73 166.26 87.6 166.91 87.44C167.56 87.29 168.47 86.99 168.92 86.79L169.75 86.42C168.38 83.25 167.88 82.11 167.75 81.85L167.52 81.37M58.48 82.17C58.39 82.24 58.33 82.76 58.34 83.32L58.37 84.34C60.38 86.05 61.46 87.12 62.07 87.82C62.67 88.53 63.67 89.85 64.27 90.75C64.88 91.66 65.79 93.23 66.3 94.23C66.8 95.24 67.54 96.89 67.93 97.9C68.32 98.9 68.92 100.68 69.26 101.83C69.6 102.99 70.08 104.93 70.34 106.14C70.59 107.35 70.9 109.09 71.04 110.02C71.17 110.95 71.22 111.75 71.15 111.81C71.07 111.86 70.27 111.54 69.36 111.08C68.46 110.63 67.63 110.26 67.53 110.26C67.42 110.26 67.45 110.53 67.6 110.95C67.74 111.32 68.21 112.44 68.65 113.43L69.45 115.22C72.58 115.21 76.08 115.26 79.25 115.33L85.01 115.45C85.34 113.34 85.4 112.71 85.36 112.69C85.32 112.66 85.02 112.78 84.69 112.94C84.36 113.11 83.5 113.64 82.77 114.13C82.04 114.62 81.44 114.96 81.44 114.88C81.44 114.81 81.77 113.76 82.19 112.55C82.6 111.34 83.37 109.28 83.9 107.97C84.43 106.66 85.12 105.1 85.43 104.49C85.78 103.8 86.02 103.49 86.08 103.67C86.13 103.82 86.39 105.26 86.66 106.87C86.93 108.48 87.35 110.59 87.59 111.54C87.83 112.5 88.21 113.76 88.44 114.34C88.85 115.4 88.86 115.4 89.59 115.38C89.99 115.36 90.76 115.3 91.3 115.23L92.28 115.11C92.92 112.56 93.39 111.16 93.73 110.35C94.08 109.55 94.82 108.19 95.37 107.33C95.93 106.47 96.85 105.26 97.42 104.63C98.34 103.61 98.43 103.46 98.17 103.25C98 103.13 97.7 102.7 97.5 102.29C97.3 101.89 97.07 101.07 96.98 100.46C96.89 99.83 96.9 98.7 97 97.81C97.1 96.95 97.22 96 97.27 95.7C97.37 95.17 97.3 95.11 95.7 94.14C94.61 93.48 93.58 92.66 92.72 91.76C92 91.01 91.04 89.83 90.59 89.14C90.14 88.46 89.67 87.86 89.54 87.82C89.41 87.77 88.63 87.68 87.8 87.62C86.74 87.55 85.89 87.6 84.92 87.81C84.16 87.97 83.22 88.3 82.81 88.54C82.41 88.78 81.9 89.17 81.68 89.41L81.27 89.84C82.13 91.12 82.54 91.82 82.75 92.22C82.95 92.62 83.05 93.01 82.97 93.08C82.88 93.15 82.24 93.29 81.53 93.39C80.76 93.5 79.82 93.5 79.15 93.4C78.55 93.31 77.6 93.08 77.05 92.89C76.5 92.7 75.59 92.32 75.04 92.04C74.48 91.76 73.37 91.11 72.57 90.58C71.76 90.06 69.74 88.64 68.08 87.43C66.42 86.22 64.53 84.89 63.87 84.48C63.22 84.06 61.98 83.4 61.13 82.99C60.27 82.59 59.36 82.21 59.11 82.15C58.86 82.09 58.57 82.09 58.48 82.17ZM158.95 90.12C158.65 90.54 157.78 91.48 157.03 92.2C156.27 92.93 155.08 93.86 154.37 94.28C153.67 94.71 152.35 95.32 151.45 95.65L149.8 96.25C145.97 100.18 144.03 101.95 143.03 102.7C142.02 103.46 140.83 104.27 140.37 104.5C139.81 104.79 139.34 105.24 138.91 105.9C138.56 106.43 137.79 107.45 137.2 108.15C136.61 108.86 135.7 109.8 135.18 110.24C134.67 110.68 134.04 111.18 133.78 111.36C133.53 111.54 132.67 111.8 131.86 111.93C130.91 112.09 128.89 112.18 126.1 112.17C122.92 112.17 121.34 112.09 120.06 111.86C119.1 111.69 118.04 111.49 117.69 111.41L117.06 111.27C117.25 113.11 117.39 113.96 117.49 114.34L117.68 115.02C123 115.2 127.8 115.19 131.77 115.12C138.74 114.99 139.06 115 140.6 115.37C142.12 115.73 142.23 115.74 142.8 115.45C143.13 115.28 143.85 115 144.4 114.82C144.95 114.65 145.39 114.43 145.38 114.35C145.36 114.27 145.05 113.74 144.68 113.19C144.31 112.64 143.88 111.73 143.72 111.18C143.53 110.49 143.47 109.73 143.53 108.79C143.58 108.02 143.78 107.06 143.98 106.6C144.18 106.14 144.6 105.46 144.92 105.09C145.24 104.71 145.58 104.4 145.68 104.4C145.78 104.4 145.91 104.71 145.96 105.09C146.02 105.46 146.19 106.27 146.34 106.87C146.5 107.48 146.92 108.55 147.29 109.25C147.71 110.05 148.45 111.03 149.25 111.83C149.95 112.55 150.72 113.18 150.94 113.25C151.28 113.35 151.74 113.06 153.41 111.66C154.55 110.72 156.45 109.05 157.65 107.96C158.85 106.86 160.58 105.13 161.48 104.12C162.38 103.12 163.43 101.88 163.81 101.38C164.19 100.87 164.78 100.01 165.12 99.45L165.74 98.45C165.11 95.89 164.82 94.47 164.69 93.64L164.44 92.13C162.45 91.54 161.55 91.16 161.15 90.9C160.74 90.65 160.21 90.2 159.96 89.89L159.5 89.35M57.9 90.86C57.95 91.31 58.34 94.6 58.77 98.17C59.2 101.75 59.55 104.7 59.56 104.72C59.57 104.75 60.6 104.86 61.86 104.96C63.12 105.07 64.17 105.12 64.19 105.09C64.21 105.06 63.65 103.76 62.94 102.2C62.23 100.64 60.87 97.4 59.93 95.01C58.98 92.62 58.21 90.58 58.22 90.49C58.23 90.4 58.14 90.26 58.02 90.19C57.86 90.09 57.83 90.27 57.9 90.86ZM170.85 90.85C170.7 91.25 170.33 92.51 170.03 93.64C169.73 94.77 169.34 96.44 169.16 97.35C168.91 98.63 168.84 99.89 168.84 103.03C168.84 106.54 168.9 107.3 169.27 108.98C169.5 110.04 169.75 111.02 169.84 111.18C169.95 111.38 170.13 111.14 170.53 110.26C170.82 109.61 171.39 108.64 171.78 108.13C172.17 107.61 172.7 107.02 172.95 106.82L173.41 106.46C173.77 112.07 174.04 114.34 174.31 115.66C174.56 116.87 175.02 118.64 175.34 119.6C175.66 120.56 176.26 122.04 176.68 122.9C177.11 123.75 177.68 124.78 177.95 125.19L178.44 125.92C178.44 124.64 178.53 123.74 178.63 123.08C178.73 122.43 179.06 121.38 179.36 120.75C179.66 120.12 179.97 119.6 180.04 119.6C180.12 119.6 180.44 120.03 180.75 120.56C181.07 121.09 181.63 122.35 182 123.36C182.37 124.36 183.07 126.01 183.56 127.02C184.04 128.03 184.67 129.1 184.96 129.41L185.49 129.97L190.33 129.77C191.43 127.5 192.12 126.34 192.56 125.74C193.01 125.13 193.87 124.16 194.46 123.57C195.06 122.98 196.29 122 197.2 121.39C198.11 120.79 199.3 120.06 199.85 119.79C200.41 119.51 201.64 118.99 202.6 118.64C203.56 118.29 204.93 117.86 205.66 117.7C206.45 117.52 206.99 117.31 206.99 117.17C206.99 117.05 206.73 116.2 206.42 115.3C206.12 114.39 205.38 112.66 204.79 111.45C204.2 110.24 203.25 108.55 202.68 107.7C202.11 106.84 201.12 105.52 200.49 104.77C199.86 104.01 198.66 102.73 197.82 101.92C196.97 101.11 195.58 99.92 194.73 99.27C193.87 98.61 192.31 97.56 191.25 96.92C190.19 96.28 188.55 95.39 187.59 94.93C186.64 94.47 184.95 93.75 183.84 93.32C182.73 92.9 181.25 92.38 180.55 92.17C179.84 91.96 178.44 91.58 177.43 91.33C176.43 91.07 174.82 90.74 173.87 90.58C172.91 90.42 171.9 90.26 171.63 90.21C171.2 90.14 171.1 90.22 170.85 90.85ZM13.42 92.59C13.42 93.29 13.45 93.54 13.49 93.13C13.53 92.73 13.53 92.16 13.49 91.85C13.45 91.55 13.42 91.88 13.42 92.59ZM17.54 92.74C17.55 92.86 17.88 93.48 18.25 94.12C18.63 94.77 19.44 95.79 20.04 96.39C20.68 97.02 21.57 97.68 22.18 97.96L23.22 98.45C23.24 103.56 23.37 106.07 23.53 107.33C23.68 108.59 24.02 110.69 24.27 112C24.52 113.31 25.06 115.66 25.46 117.22C25.87 118.78 26.76 121.75 27.44 123.81C28.12 125.88 29.24 128.97 29.92 130.68C30.6 132.39 31.88 135.32 32.76 137.18C33.63 139.05 34.92 141.58 35.61 142.81C36.31 144.04 37.37 145.75 37.98 146.61C38.58 147.46 39.12 148.1 39.18 148.03C39.24 147.96 39.43 147.36 39.61 146.71C39.78 146.05 40.2 144.98 40.54 144.33C40.88 143.67 41.33 142.97 41.53 142.77L41.9 142.4C42.03 143.11 42.29 144.47 42.56 145.88C42.84 147.29 43.38 149.54 43.77 150.87C44.15 152.21 44.86 154.35 45.33 155.64C45.8 156.92 46.87 159.33 47.7 160.99C48.52 162.66 49.85 165.01 50.65 166.21C51.44 167.42 52.71 169.15 53.48 170.06C54.24 170.97 55.44 172.29 56.15 172.99L57.43 174.27C57.62 172.43 57.79 171.38 57.94 170.75L58.2 169.6C56.57 167.82 55.63 166.69 55.06 165.93C54.5 165.18 53.56 163.78 52.97 162.83C52.39 161.87 51.44 160.1 50.87 158.89C50.29 157.68 49.43 155.62 48.96 154.31C48.49 153 47.81 150.9 47.47 149.64C47.12 148.38 46.56 145.95 46.21 144.24C45.87 142.52 45.45 139.93 45.29 138.47C45.13 137.01 44.96 135.54 44.92 135.22L44.84 134.62C43.68 135.26 42.8 135.95 42.12 136.57C41.45 137.18 40.41 138.35 39.81 139.17C39.2 139.98 38.65 140.65 38.57 140.66C38.5 140.66 37.9 139.57 37.26 138.24C36.61 136.9 35.71 134.86 35.26 133.7C34.81 132.55 34.02 130.32 33.5 128.76C32.98 127.2 32.11 124.35 31.56 122.44C31.02 120.53 30.29 117.76 29.95 116.3C29.6 114.84 29.06 112.37 28.75 110.81C28.44 109.25 28.02 106.86 27.82 105.5C27.63 104.14 27.37 101.87 27.26 100.46C27.15 99.05 27.11 97.2 27.18 96.34L27.3 94.78C25.08 94.57 23.49 94.29 22.33 94.03C21.17 93.77 19.61 93.33 18.87 93.05C18.06 92.74 17.52 92.62 17.54 92.74Z" />
		<path class="shp2" d="M114.95 94.18C114.94 95.1 115.08 96.29 115.3 97.21C115.5 98.04 115.91 99.26 116.22 99.91L116.76 101.1C117.83 100.94 118.38 100.74 118.69 100.56C119.22 100.24 119.25 100.25 119.97 100.66C120.37 100.9 121.36 101.26 122.16 101.46C123.13 101.71 124.21 101.84 125.37 101.84C126.52 101.84 127.6 101.71 128.57 101.46C129.37 101.26 130.35 100.91 130.74 100.68C131.42 100.29 131.46 100.29 132.11 100.59C132.48 100.77 133.05 100.95 133.37 101.01C133.93 101.1 133.99 101.05 134.4 100.23C134.64 99.75 135.01 98.83 135.21 98.17C135.41 97.52 135.66 96.2 135.76 95.24C135.85 94.28 135.94 93.32 135.96 93.09C135.97 92.86 135.92 92.68 135.84 92.68C135.77 92.69 135.34 92.97 134.88 93.31C134.43 93.65 133.72 94.29 133.3 94.72C132.88 95.16 132.2 96.01 131.79 96.61C131.37 97.22 131.03 97.61 131.04 97.48C131.04 97.36 130.65 96.84 130.17 96.33L129.3 95.41C128.5 96.2 128.11 96.7 127.92 97.03L127.56 97.62C126.5 96.22 126 95.68 125.78 95.53C125.39 95.26 125.33 95.27 124.79 95.74C124.48 96.02 123.98 96.56 123.7 96.94L123.17 97.62C122.77 96.84 122.38 96.34 122.04 96.01L121.43 95.4C120.08 96.84 119.69 97.36 119.7 97.48C119.7 97.61 119.3 97.14 118.81 96.43C118.32 95.73 117.39 94.67 116.75 94.08C116.1 93.49 115.44 92.93 115.26 92.84C114.99 92.68 114.95 92.81 114.95 94.18Z" />
		<path class="shp1" d="M100.93 99.29C100.98 100.94 101.18 103.36 101.38 104.67C101.57 105.98 101.95 107.88 102.22 108.89C102.48 109.89 103.02 111.54 103.41 112.55C103.81 113.56 104.55 115.12 105.07 116.03C105.59 116.94 106.36 118.11 106.77 118.65C107.18 119.18 107.57 119.59 107.64 119.56C107.7 119.53 108.08 119.1 108.47 118.59C108.86 118.09 109.76 117.29 110.46 116.82C111.16 116.36 112.25 115.8 112.88 115.59C113.5 115.38 114.22 115.21 114.48 115.21C114.73 115.21 114.93 115.12 114.93 115.02C114.93 114.92 114.78 114.61 114.58 114.34C114.39 114.06 113.98 113.28 113.67 112.6C113.36 111.92 112.94 110.76 112.74 110.03C112.54 109.3 112.37 108.52 112.37 108.29C112.37 108.03 111.8 107.27 110.77 106.17C109.89 105.22 108.47 103.56 107.62 102.46C106.77 101.36 105.28 99.58 104.32 98.49C103.37 97.41 102.46 96.52 102.31 96.53C102.16 96.53 101.76 96.47 101.43 96.41L100.84 96.28M117.23 104.61C116.66 105.15 116.15 105.75 116.1 105.96C116.03 106.21 116.19 106.51 116.61 106.92C116.95 107.26 117.55 107.68 117.95 107.87C118.44 108.1 119.51 108.29 121.16 108.44C122.64 108.57 124.9 108.62 126.83 108.56C128.59 108.5 130.53 108.36 131.13 108.24C131.73 108.13 132.38 107.89 132.57 107.73C132.76 107.56 133.02 107.19 133.16 106.92C133.3 106.64 133.42 106.15 133.41 105.82C133.4 105.37 133.23 105.06 132.68 104.54C132.12 104.01 131.84 103.87 131.45 103.92C131.17 103.96 130.5 104.13 129.94 104.3C129.34 104.48 127.95 104.65 126.46 104.71C125.03 104.77 123.34 104.73 122.44 104.61C121.58 104.49 120.47 104.28 119.97 104.14C119.46 104 118.88 103.83 118.66 103.76C118.35 103.65 118.05 103.83 117.23 104.61ZM161.23 114.61C161.1 115.49 161 117.37 161 118.78C161.01 120.19 161.11 122.08 161.23 122.99C161.34 123.9 161.65 125.67 161.9 126.93C162.16 128.19 162.64 130.16 162.98 131.32C163.31 132.48 163.68 133.66 163.78 133.93L163.98 134.44C165.4 132.7 165.76 132.01 166.09 130.96C166.34 130.15 166.63 129.45 166.73 129.4C166.84 129.34 166.91 129.67 166.91 130.22C166.91 130.73 166.97 131.18 167.05 131.22C167.12 131.27 167.6 131.1 168.1 130.86C168.6 130.62 169.28 130.37 169.61 130.32C169.94 130.27 170.2 130.18 170.2 130.13C170.2 130.08 169.72 129.36 169.13 128.53C168.53 127.7 167.54 126.17 166.93 125.14C166.32 124.11 165.45 122.54 165.01 121.66C164.57 120.78 163.75 118.9 163.19 117.49C162.64 116.08 162.07 114.53 161.94 114.04C161.8 113.55 161.65 113.11 161.59 113.08C161.53 113.04 161.37 113.73 161.23 114.61Z" />
		<path class="shp2" d="M114.57 118.93C114.12 119.06 113.37 119.37 112.92 119.63C112.47 119.89 111.85 120.38 111.54 120.72C111.24 121.06 110.79 121.75 110.54 122.26C110.17 123.01 110.09 123.45 110.09 124.75C110.08 126.16 110.14 126.44 110.68 127.49C111.16 128.45 111.23 128.72 111.05 128.94C110.93 129.09 110.42 129.71 109.91 130.32C109.41 130.92 108.51 131.95 107.9 132.61C107.29 133.26 104.22 136.49 101.08 139.79C97.93 143.09 95.29 145.79 95.21 145.79C95.14 145.79 95.1 144.33 95.12 142.54C95.15 140.75 95.19 137.5 95.21 135.32C95.24 133.14 95.33 131.28 95.41 131.2C95.5 131.12 96.2 131 96.97 130.93C97.96 130.85 98.69 130.66 99.45 130.29C100.05 130 100.82 129.44 101.18 129.03C101.54 128.63 102.03 127.85 102.28 127.29C102.6 126.56 102.73 125.96 102.73 125.1C102.74 124.41 102.59 123.48 102.4 122.9C102.15 122.16 101.79 121.61 101.04 120.87C100.34 120.17 99.67 119.7 98.92 119.4C97.83 118.96 97.78 118.96 92.51 119.03C89.6 119.07 86.05 119.11 84.64 119.12C83.24 119.13 79.32 119.08 75.95 119.01C71.84 118.92 69.49 118.94 68.81 119.07C68.26 119.18 67.4 119.46 66.89 119.69C66.36 119.94 65.61 120.52 65.1 121.1C64.58 121.67 64.1 122.45 63.92 122.99C63.75 123.49 63.62 124.4 63.62 125C63.62 125.61 63.78 126.56 63.96 127.11C64.21 127.85 64.58 128.39 65.32 129.14C66.14 129.96 66.58 130.24 67.53 130.54C68.27 130.78 69.48 130.97 70.74 131.04C71.84 131.1 72.79 131.19 72.84 131.25C72.89 131.31 72.98 132.4 73.03 133.67C73.09 134.95 73.12 147.94 73.1 162.55C73.08 181.39 73.01 189.8 72.86 191.49C72.74 192.8 72.58 193.93 72.51 194C72.44 194.07 71.83 194.17 71.15 194.23C70.47 194.28 69.52 194.46 69.04 194.63C68.56 194.79 67.82 195.16 67.4 195.45C66.97 195.74 66.38 196.33 66.09 196.76C65.8 197.18 65.41 197.99 65.24 198.54C64.99 199.3 64.94 199.84 65.03 200.69C65.1 201.32 65.32 202.19 65.51 202.62C65.71 203.04 66.19 203.75 66.57 204.19C66.98 204.67 67.71 205.21 68.36 205.52C68.96 205.81 70.07 206.14 70.83 206.25C71.59 206.37 72.81 206.41 73.57 206.34C74.33 206.28 77.95 206.2 81.63 206.16C85.3 206.13 90.36 206.17 92.88 206.25C95.75 206.35 97.97 206.34 98.83 206.22C99.63 206.12 100.62 205.84 101.21 205.55C101.76 205.28 102.54 204.72 102.94 204.32C103.34 203.91 103.85 203.17 104.08 202.66C104.31 202.16 104.56 201.29 104.62 200.74C104.7 200.03 104.64 199.4 104.41 198.63C104.24 198.03 103.86 197.18 103.57 196.76C103.28 196.33 102.69 195.74 102.26 195.46C101.83 195.17 101.13 194.8 100.7 194.63C100.28 194.47 99.16 194.28 98.23 194.23C97.3 194.18 96.29 194.09 95.99 194.05L95.44 193.97C95.23 190.49 95.17 187.62 95.16 185.35C95.16 183.09 95.18 181.21 95.21 181.19C95.24 181.16 96.29 182.39 97.55 183.92C98.81 185.46 101.03 188.07 102.48 189.74C103.94 191.41 106.91 194.55 109.07 196.72C111.24 198.88 114.12 201.62 115.48 202.8C116.84 203.98 118.86 205.64 119.97 206.51C121.07 207.37 123.17 208.89 124.63 209.88C126.09 210.87 128.11 212.15 129.12 212.73C130.12 213.31 131.85 214.24 132.96 214.8C134.07 215.35 135.84 216.15 136.9 216.58C137.95 217.01 139.6 217.62 140.56 217.93C141.51 218.24 143.16 218.7 144.22 218.96C145.27 219.21 146.96 219.55 147.97 219.71C148.98 219.87 151.24 220.03 153 220.06C154.76 220.1 156.86 220.05 157.67 219.96C158.47 219.87 160.04 219.62 161.15 219.41C162.25 219.2 164.31 218.64 165.72 218.18C167.13 217.71 169.4 216.78 170.75 216.1C172.11 215.43 174.09 214.3 175.15 213.59C176.2 212.89 177.85 211.66 178.81 210.86C179.76 210.06 181.2 208.71 182.01 207.86C182.81 207.01 184.01 205.6 184.66 204.73C185.32 203.86 186.26 202.47 186.76 201.63C187.26 200.79 187.99 199.36 188.38 198.45C188.77 197.54 189.28 196.22 189.52 195.52C189.76 194.81 190.16 193.41 190.41 192.41C190.67 191.4 191.04 189.5 191.24 188.19C191.44 186.88 191.69 184.53 191.79 182.97C191.89 181.41 192.01 173.58 192.07 165.57C192.12 157.56 192.16 149.76 192.17 148.22L192.17 145.43C193.02 145.43 193.7 145.33 194.23 145.22C194.75 145.11 195.56 144.83 196.01 144.6C196.46 144.37 197.17 143.83 197.58 143.39C198 142.94 198.51 142.11 198.74 141.49C199.08 140.61 199.14 140.14 199.08 139.11C199.02 138.21 198.85 137.55 198.53 136.91C198.27 136.41 197.74 135.69 197.35 135.32C196.97 134.94 196.16 134.41 195.55 134.13L194.45 133.62L171.21 133.64C169.51 134.31 168.64 134.85 168.19 135.27C167.74 135.69 167.16 136.48 166.92 137.02C166.55 137.81 166.46 138.31 166.46 139.47C166.46 140.56 166.56 141.15 166.83 141.76C167.04 142.22 167.54 142.96 167.95 143.41C168.42 143.93 169.12 144.43 169.86 144.77C170.74 145.17 171.42 145.33 172.63 145.41L174.23 145.52C174.39 146.65 174.4 154.73 174.36 164.2C174.29 178.93 174.24 181.65 173.99 183.06C173.83 183.97 173.56 185.17 173.4 185.72C173.23 186.27 172.8 187.3 172.43 187.99C172.02 188.76 171.4 189.58 170.85 190.07C170.34 190.52 169.35 191.16 168.65 191.51C167.94 191.85 166.79 192.26 166.09 192.4C165.38 192.55 164.11 192.67 163.25 192.67C162.39 192.67 161.12 192.55 160.41 192.4C159.71 192.24 158.64 191.85 158.03 191.53C157.43 191.21 156.4 190.4 155.75 189.75C154.96 188.96 154.35 188.14 153.96 187.32C153.64 186.64 153.2 185.45 153 184.67C152.79 183.89 152.49 182.26 152.31 181.05C152.03 179.1 152 177.3 152.03 165.3C152.05 157.84 152.07 150.34 152.07 148.63L152.08 145.52C153.72 145.31 154.56 145.13 155.01 144.98C155.47 144.83 156.28 144.31 156.82 143.83C157.37 143.35 158.02 142.54 158.27 142.04C158.56 141.46 158.76 140.69 158.82 139.93C158.88 139.08 158.81 138.43 158.57 137.64C158.3 136.75 158.03 136.33 157.13 135.44C156.34 134.66 155.73 134.24 155.01 133.98C154.07 133.64 153.62 133.62 147.79 133.67C144.36 133.7 139.05 133.68 135.98 133.61L130.4 133.49C131.82 132.62 132.64 132.17 133.14 131.94C133.65 131.71 134.55 131.4 135.16 131.24C135.76 131.09 136.87 130.91 137.63 130.85C138.38 130.79 139.54 130.59 140.19 130.41C141.09 130.15 141.62 129.86 142.36 129.19C142.94 128.66 143.53 127.89 143.82 127.29C144.23 126.45 144.3 126.04 144.3 124.82C144.29 123.85 144.18 123.11 143.97 122.62C143.79 122.22 143.43 121.57 143.16 121.19C142.88 120.8 142.25 120.21 141.75 119.87C141.24 119.53 140.34 119.12 139.73 118.96C138.79 118.7 137.93 118.68 133.51 118.81C130.69 118.89 127.36 118.95 126.1 118.95C124.84 118.94 121.92 118.88 119.6 118.82C116.45 118.73 115.19 118.76 114.57 118.93Z" />
		<path class="shp1" d="M211.57 121C211.01 121.04 209.7 121.2 208.64 121.36C207.58 121.52 206.06 121.86 205.25 122.11C204.45 122.36 202.96 122.99 201.96 123.51C200.44 124.29 199.83 124.75 198.37 126.19C197.4 127.15 196.35 128.39 196.04 128.94C195.72 129.5 195.46 129.99 195.46 130.04C195.46 130.09 195.89 130.27 196.42 130.45C196.95 130.62 197.77 131.01 198.25 131.32C198.73 131.62 199.46 132.18 199.88 132.56C200.43 133.05 200.83 133.26 201.3 133.28C201.66 133.3 202.31 133.36 202.74 133.42L203.51 133.52C203.67 132.17 203.8 131.37 203.9 130.87C204 130.36 204.39 129.38 204.76 128.68C205.18 127.91 205.86 127.02 206.53 126.39C207.14 125.82 208.17 125.09 208.82 124.77C209.48 124.44 210.59 124.06 211.29 123.91C212 123.76 212.94 123.64 213.4 123.64C213.85 123.64 214.8 123.76 215.5 123.91C216.21 124.07 217.19 124.42 217.68 124.69C218.17 124.96 218.89 125.5 219.28 125.87C219.67 126.25 220.21 126.99 220.49 127.52C220.93 128.37 220.99 128.71 221.03 130.5C221.06 131.61 221.08 132.53 221.08 132.56C221.08 132.58 221.37 132.36 221.72 132.06C222.08 131.75 222.67 131.35 223.05 131.16C223.43 130.97 224.19 130.68 224.74 130.52C225.3 130.35 226.33 130.22 227.03 130.23C227.74 130.23 228.81 130.36 229.41 130.52C230.01 130.68 231 131.06 231.61 131.38C232.21 131.7 233.16 132.41 233.72 132.97C234.33 133.57 234.98 134.46 235.32 135.17C235.64 135.82 235.99 136.81 236.09 137.37C236.19 137.92 236.28 138.68 236.28 139.06L236.27 139.75C238.9 139.71 239.56 139.81 240.3 140.08C240.85 140.29 241.82 140.84 242.45 141.29C243.09 141.76 243.94 142.62 244.37 143.22C244.8 143.83 245.18 144.3 245.21 144.28C245.24 144.25 245.05 143.53 244.77 142.68C244.5 141.82 243.85 140.22 243.33 139.11C242.81 138 241.94 136.39 241.41 135.54C240.88 134.68 239.93 133.32 239.3 132.51C238.67 131.71 237.42 130.35 236.53 129.49C235.63 128.64 234.08 127.38 233.07 126.71C232.06 126.04 230.29 125.03 229.14 124.48C227.98 123.93 226.41 123.27 225.66 123.02C224.9 122.76 223.46 122.35 222.46 122.1C221.45 121.85 219.8 121.52 218.8 121.36C217.79 121.21 215.98 121.05 214.77 121.01C213.56 120.96 212.12 120.96 211.57 121ZM156.26 122.44C155.9 123.15 155.11 124.46 154.51 125.37C153.92 126.28 152.96 127.6 152.39 128.3C151.82 129.01 151.36 129.62 151.36 129.67C151.35 129.72 152.11 129.82 153.05 129.88C153.98 129.95 155.28 130.18 155.93 130.39L157.12 130.77C157.87 129.89 157.96 129.63 157.88 129.22C157.83 128.91 157.66 127.72 157.5 126.56C157.34 125.4 157.15 123.71 157.07 122.81L156.92 121.16" />
		<path class="shp3" d="M114.96 122.85C114.61 123.03 114.22 123.4 114.09 123.68C113.95 123.95 113.84 124.45 113.84 124.78C113.84 125.1 114 125.64 114.2 125.97C114.46 126.39 114.84 126.65 115.48 126.88C116.22 127.14 116.4 127.28 116.4 127.61C116.4 127.84 115.99 128.62 115.5 129.35C115.01 130.08 113.83 131.59 112.88 132.7C111.93 133.8 110.05 135.88 108.7 137.31C107.35 138.74 102.91 143.36 98.83 147.58L91.42 155.26C91.33 137.92 91.39 132.77 91.5 131.51C91.62 130.22 91.82 129.15 92.01 128.76C92.19 128.41 92.58 127.99 92.88 127.81C93.22 127.62 94.22 127.42 95.44 127.29C96.55 127.18 97.66 126.98 97.91 126.85C98.17 126.72 98.52 126.29 98.71 125.9C98.94 125.42 99.02 124.99 98.94 124.59C98.88 124.26 98.62 123.79 98.37 123.54C98.12 123.29 97.56 122.99 97.14 122.88C96.57 122.73 94.72 122.72 90.32 122.85C86.39 122.96 81.79 122.96 77.14 122.84C71.87 122.71 69.8 122.72 69.23 122.87C68.8 122.99 68.24 123.27 67.98 123.49C67.73 123.72 67.47 124.19 67.42 124.55C67.35 124.94 67.42 125.45 67.61 125.87C67.78 126.28 68.12 126.67 68.45 126.84C68.79 127.01 69.98 127.18 71.61 127.29C73.73 127.43 74.37 127.54 75.03 127.88C75.48 128.11 76 128.55 76.18 128.85C76.35 129.15 76.58 130.13 76.69 131.05C76.82 132.16 76.86 142.47 76.81 162.55C76.75 189.57 76.71 192.57 76.43 194.15C76.26 195.1 75.96 196.24 75.76 196.66C75.53 197.16 75.22 197.51 74.9 197.64C74.62 197.74 73.49 197.9 72.38 197.98C71.28 198.06 70.2 198.2 70 198.31C69.8 198.41 69.45 198.73 69.22 199.02C68.96 199.35 68.8 199.79 68.81 200.19C68.81 200.54 68.95 201.04 69.12 201.29C69.3 201.54 69.57 201.85 69.72 201.97C69.88 202.09 70.42 202.28 70.92 202.38C71.58 202.53 73.53 202.53 77.87 202.38C82.27 202.24 85.81 202.24 90.87 202.38C95.57 202.52 98.12 202.53 98.74 202.4C99.42 202.26 99.81 202.05 100.25 201.57C100.71 201.06 100.84 200.76 100.84 200.19C100.84 199.65 100.71 199.31 100.34 198.9C100.06 198.59 99.59 198.27 99.29 198.18C98.98 198.09 97.79 197.97 96.63 197.91C95.47 197.85 94.2 197.73 93.8 197.63C93.36 197.53 92.86 197.23 92.56 196.9C92.28 196.6 91.97 196.03 91.87 195.66C91.76 195.28 91.6 193.69 91.5 192.13C91.4 190.57 91.34 184.87 91.37 179.46L91.42 169.63C96.88 176.92 99.37 180.15 100.49 181.51C101.6 182.87 103.48 185.09 104.67 186.45C105.85 187.81 107.93 190.09 109.28 191.52C110.63 192.95 112.84 195.17 114.2 196.45C115.56 197.73 117.7 199.66 118.96 200.72C120.22 201.79 122.07 203.29 123.08 204.05C124.08 204.82 125.9 206.1 127.1 206.91C128.31 207.71 130.04 208.81 130.95 209.34C131.85 209.87 133.5 210.76 134.61 211.32C135.72 211.87 137.49 212.68 138.54 213.11C139.6 213.54 141.41 214.18 142.57 214.53C143.73 214.88 145.54 215.34 146.6 215.55C147.65 215.76 149.26 216.02 150.16 216.12C151.07 216.22 152.7 216.31 153.78 216.31C154.86 216.31 156.55 216.22 157.53 216.11C158.51 216 160.1 215.75 161.05 215.54C162.01 215.34 163.62 214.88 164.62 214.53C165.63 214.18 167.32 213.49 168.37 212.98C169.43 212.48 171.12 211.53 172.13 210.87C173.13 210.21 174.7 209.07 175.6 208.34C176.51 207.61 178.03 206.2 178.99 205.2C179.95 204.21 181.26 202.68 181.92 201.8C182.57 200.93 183.27 199.94 183.46 199.61C183.81 199.01 183.81 199 183.46 199.27C183.27 199.42 182.7 199.91 182.19 200.35C181.69 200.8 180.54 201.65 179.63 202.25C178.72 202.85 177.24 203.7 176.34 204.13C175.43 204.57 173.7 205.26 172.49 205.66C171.28 206.07 169.47 206.56 168.47 206.77C167.46 206.97 165.89 207.22 164.99 207.32C164.08 207.43 162.09 207.51 160.55 207.51C159.02 207.52 156.79 207.39 155.61 207.23C154.43 207.08 152.59 206.74 151.54 206.48C150.48 206.23 148.79 205.7 147.79 205.31C146.78 204.92 144.93 204.01 143.67 203.28C142.41 202.56 140.64 201.48 139.73 200.87C138.83 200.26 137.14 199.04 135.98 198.16C134.82 197.29 132.64 195.51 131.13 194.22C129.62 192.92 126.4 189.89 123.98 187.47C121.55 185.05 118.5 181.87 117.19 180.41C115.88 178.95 113.84 176.6 112.64 175.19C111.45 173.78 109.32 171.18 107.91 169.42C106.5 167.66 104.05 164.48 102.46 162.37C100.87 160.25 99.57 158.44 99.56 158.34C99.55 158.24 104.72 152.99 111.04 146.69C117.36 140.38 123.27 134.53 124.18 133.69C125.08 132.85 126.52 131.65 127.38 131.01C128.23 130.38 129.84 129.4 130.95 128.85C132.06 128.29 133.5 127.71 134.15 127.54C134.81 127.38 136.21 127.15 137.26 127.03C138.32 126.91 139.37 126.71 139.6 126.59C139.82 126.48 140.13 126.13 140.28 125.83C140.43 125.53 140.56 125.01 140.56 124.68C140.57 124.33 140.4 123.87 140.15 123.55C139.92 123.26 139.44 122.9 139.09 122.75C138.56 122.54 137.52 122.52 132.69 122.65C129.52 122.74 126.67 122.8 126.37 122.79C126.07 122.79 123.52 122.72 120.7 122.65C115.99 122.53 115.52 122.55 114.96 122.85Z" />
		<path class="shp1" d="M148.43 127.52C148.32 127.85 147.98 128.51 147.68 128.99L147.14 129.86C149.41 129.86 150.07 129.82 150.07 129.77C150.07 129.72 149.78 129.06 149.43 128.3C149.08 127.55 148.76 126.93 148.71 126.93C148.67 126.93 148.54 127.2 148.43 127.52Z" />
		<path class="shp2" d="M211.11 128.64C210.58 128.88 209.86 129.44 209.4 129.96C208.85 130.6 208.5 131.25 208.21 132.15C207.88 133.23 207.82 133.84 207.83 135.99C207.85 138.23 207.92 138.83 208.41 140.66C208.71 141.82 209.27 143.59 209.64 144.6C210.02 145.61 210.79 147.4 211.36 148.58C211.93 149.76 212.43 150.7 212.48 150.66C212.53 150.62 212.64 149.91 212.72 149.06C212.8 148.22 213.03 146.46 213.23 145.15C213.42 143.84 213.75 141.99 213.96 141.03C214.16 140.07 214.53 138.51 214.77 137.55C215.01 136.59 215.55 134.7 215.97 133.34C216.54 131.46 216.7 130.69 216.62 130.13C216.56 129.73 216.41 129.28 216.28 129.14C216.15 129 215.72 128.73 215.32 128.55C214.84 128.33 214.15 128.22 213.31 128.22C212.35 128.21 211.79 128.32 211.11 128.64ZM225.3 134.99C224.85 135.2 224.3 135.66 224.07 136.01C223.83 136.35 223.31 137.73 222.9 139.06C222.48 140.4 221.73 142.6 221.23 143.96C220.72 145.32 219.94 147.3 219.49 148.36C219.04 149.41 218.27 151.02 217.78 151.93C217.3 152.83 216.61 153.99 216.25 154.49C215.9 155 215.64 155.43 215.69 155.45C215.74 155.48 216.21 155.29 216.74 155.04C217.27 154.78 218.4 154.05 219.25 153.42C220.11 152.78 221.67 151.49 222.72 150.54C223.77 149.59 226.01 147.31 227.71 145.47C229.76 143.24 230.94 141.81 231.24 141.17C231.55 140.51 231.69 139.89 231.69 139.2C231.69 138.52 231.55 137.89 231.26 137.28C231.03 136.77 230.64 136.18 230.4 135.96C230.16 135.74 229.55 135.38 229.04 135.15C228.54 134.93 227.68 134.72 227.12 134.67C226.35 134.62 225.92 134.69 225.3 134.99Z" />
		<path class="shp1" d="M67.9 137.12C67.56 137.61 67.05 138.5 66.77 139.11C66.49 139.71 66.12 140.74 65.95 141.4C65.77 142.1 65.63 143.3 65.63 144.33C65.62 145.28 65.68 146.29 65.75 146.57L65.89 147.07C66.81 146.49 67.43 146.16 67.85 145.96C68.28 145.77 68.8 145.61 69 145.61C69.35 145.61 69.36 145.49 69.37 141.35C69.37 137.13 69.37 137.09 68.94 136.67L68.52 136.24" />
		<path class="shp3" d="M128.11 137.5C127.96 137.54 127.64 137.67 127.4 137.79C127.17 137.91 126.86 138.23 126.72 138.51C126.58 138.79 126.46 139.22 126.46 139.47C126.46 139.73 126.58 140.16 126.71 140.43C126.85 140.71 127.26 141.08 127.63 141.26C128.06 141.47 128.73 141.58 129.53 141.58C130.21 141.58 131.26 141.67 131.86 141.78C132.47 141.89 133.19 142.1 133.46 142.24C133.74 142.38 134.11 142.8 134.28 143.18C134.55 143.78 134.61 144.92 134.72 152.39C134.79 157.07 134.85 164.82 134.86 169.6C134.87 174.39 134.96 179.17 135.07 180.23C135.17 181.28 135.43 183.06 135.63 184.16C135.84 185.27 136.25 186.92 136.54 187.83C136.83 188.73 137.28 189.97 137.54 190.57C137.81 191.18 138.32 192.17 138.68 192.77C139.05 193.38 139.72 194.37 140.18 194.97C140.64 195.57 141.55 196.59 142.2 197.23C142.86 197.87 144.05 198.83 144.86 199.36C145.66 199.9 146.86 200.6 147.51 200.93C148.17 201.25 149.52 201.79 150.53 202.13C151.54 202.47 153.35 202.92 154.56 203.14C156.43 203.49 157.42 203.55 161.33 203.56C164.98 203.56 166.26 203.5 167.64 203.24C168.6 203.06 170.16 202.66 171.12 202.35C172.08 202.05 173.56 201.45 174.41 201.03C175.27 200.61 176.75 199.73 177.71 199.08C178.66 198.43 180.11 197.24 180.92 196.43C181.73 195.63 182.82 194.35 183.32 193.6C183.83 192.84 184.56 191.6 184.94 190.85C185.31 190.09 185.9 188.65 186.23 187.64C186.57 186.64 187 184.99 187.21 183.98C187.41 182.97 187.66 181.45 187.78 180.59C187.89 179.74 188.02 177.59 188.07 175.83C188.13 174.07 188.23 166.15 188.31 158.25C188.43 144.6 188.46 143.83 188.79 143.06C189.05 142.47 189.31 142.18 189.74 142C190.07 141.87 191.02 141.71 191.85 141.65C192.68 141.6 193.62 141.47 193.95 141.38C194.28 141.29 194.71 140.99 194.92 140.71C195.15 140.4 195.29 139.92 195.29 139.47C195.29 139.02 195.15 138.55 194.92 138.24C194.71 137.96 194.28 137.66 193.95 137.57C193.62 137.47 188.55 137.41 182.47 137.43C171.9 137.46 171.56 137.47 171.05 137.83C170.76 138.03 170.45 138.38 170.36 138.6C170.28 138.83 170.21 139.24 170.21 139.52C170.21 139.8 170.37 140.29 170.57 140.62C170.8 140.99 171.17 141.28 171.53 141.38C171.86 141.47 172.91 141.59 173.87 141.65C174.82 141.7 175.89 141.85 176.24 141.96C176.6 142.08 177.07 142.35 177.31 142.57C177.54 142.78 177.82 143.28 177.95 143.69C178.11 144.24 178.17 148.96 178.17 162.64C178.17 179.06 178.13 181.08 177.85 182.97C177.67 184.13 177.36 185.7 177.15 186.45C176.94 187.21 176.44 188.53 176.03 189.38C175.42 190.66 175 191.22 173.7 192.5C172.46 193.73 171.79 194.23 170.57 194.83C169.72 195.26 168.36 195.77 167.55 195.98C166.75 196.19 165.3 196.41 164.35 196.47C163.34 196.53 161.92 196.48 160.96 196.35C160.06 196.23 158.74 195.92 158.03 195.66C157.33 195.4 156.26 194.89 155.66 194.53C155.05 194.18 153.99 193.34 153.3 192.69C152.62 192.03 151.75 191.04 151.39 190.48C151.03 189.93 150.49 188.9 150.19 188.19C149.9 187.49 149.46 186.13 149.22 185.17C148.98 184.21 148.67 182.44 148.53 181.23C148.39 180.02 148.22 177.3 148.16 175.19C148.1 173.07 148.12 165.16 148.21 157.61C148.34 146.23 148.41 143.74 148.64 143.14C148.83 142.62 149.1 142.31 149.54 142.09C149.88 141.91 150.82 141.72 151.63 141.66C152.43 141.6 153.36 141.47 153.69 141.38C154.01 141.29 154.45 140.99 154.65 140.71C154.89 140.4 155.03 139.93 155.02 139.47C155.02 139.07 154.89 138.56 154.74 138.33C154.59 138.1 154.28 137.82 154.05 137.69C153.74 137.53 150.54 137.47 141.01 137.45C134.07 137.44 128.26 137.46 128.11 137.5Z" />
		<path class="shp2" d="M202.86 138.41C202.78 138.47 202.73 139.07 202.75 139.73C202.76 140.4 202.69 141.31 202.58 141.76C202.48 142.22 202.14 143.12 201.83 143.78C201.46 144.55 200.83 145.4 200.05 146.19L198.85 147.41C199.93 149.54 200.59 150.38 201.68 151.47C202.54 152.33 203.74 153.32 204.34 153.67C204.94 154.02 206.17 154.58 207.08 154.91C207.99 155.25 208.79 155.49 208.86 155.46C208.93 155.43 208.69 154.95 208.33 154.4C207.98 153.85 207.29 152.57 206.81 151.56C206.32 150.55 205.72 149.11 205.47 148.36C205.22 147.6 204.84 146.16 204.62 145.15C204.4 144.14 204.15 142.47 204.05 141.44C203.96 140.41 203.76 139.32 203.61 139.02C203.45 138.71 203.26 138.43 203.17 138.38C203.08 138.33 202.94 138.35 202.86 138.41Z" />
		<path class="shp0" d="M113.49 149.5C106.69 156.3 104.49 158.59 104.61 158.8C104.69 158.95 105.62 160.23 106.67 161.64C107.73 163.05 109.58 165.44 110.79 166.95C112 168.46 113.74 170.6 114.67 171.71C115.59 172.82 117.07 174.55 117.95 175.56C118.83 176.56 120.77 178.71 122.26 180.32C123.74 181.93 126.06 184.32 127.41 185.63C128.75 186.94 130.66 188.75 131.64 189.66C132.62 190.56 133.47 191.27 133.51 191.22C133.56 191.16 133.43 190.63 133.22 190.02C133.02 189.42 132.64 188.14 132.39 187.19C132.14 186.23 131.76 184.42 131.56 183.16C131.22 181.06 131.18 179.64 131.04 166.21C130.96 158.16 130.89 150.2 130.88 148.54L130.86 145.52C127.71 145.33 127.05 145.2 126.28 144.85C125.73 144.59 124.99 144.15 124.65 143.85C124.31 143.56 123.84 143.03 123.62 142.68C123.4 142.33 123.14 141.69 123.04 141.26C122.94 140.83 122.78 140.48 122.69 140.48C122.6 140.48 118.46 144.54 113.49 149.5Z" />
		<path class="shp2" d="M236.88 144.38C236.66 144.5 235.81 145.51 234.98 146.62C234.15 147.72 232.77 149.49 231.9 150.55C231.03 151.6 229.45 153.37 228.38 154.49C227.32 155.6 225.88 156.97 225.18 157.54C224.49 158.11 223.47 158.86 222.91 159.22C222.13 159.72 221.98 159.88 222.23 159.97C222.4 160.03 223.31 160.08 224.24 160.08C225.45 160.08 226.46 159.95 227.76 159.62C228.9 159.34 230.35 158.79 231.61 158.16C232.71 157.61 234.36 156.6 235.27 155.92C236.17 155.24 237.7 153.9 238.67 152.94C239.94 151.68 240.57 150.89 240.95 150.1C241.31 149.32 241.46 148.73 241.45 148.08C241.44 147.55 241.28 146.86 241.07 146.43C240.87 146.03 240.47 145.48 240.18 145.21C239.89 144.94 239.35 144.58 238.97 144.43C238.6 144.27 238.06 144.15 237.78 144.15C237.51 144.15 237.1 144.26 236.88 144.38Z" />
		<path class="shp1" d="M249.88 147.07C249.88 147.93 249.91 148.26 249.95 147.81C249.99 147.35 249.99 146.65 249.95 146.25C249.91 145.85 249.88 146.22 249.88 147.07ZM120.6 147.72C119.43 148.9 119.42 148.91 119.97 148.91C120.27 148.9 120.91 148.97 121.39 149.04C121.87 149.12 122.26 149.22 122.26 149.27C122.26 149.32 121.79 149.52 121.21 149.71C120.63 149.89 119.33 150.44 118.32 150.92C116.54 151.77 116.4 151.88 113.56 154.77C111.95 156.41 110.8 157.69 111 157.61C111.2 157.54 111.9 157.29 112.55 157.06C113.21 156.84 114.32 156.55 115.03 156.43C115.73 156.3 117.12 156.23 118.12 156.26L119.93 156.32C117.41 158 116.06 158.96 115.3 159.53C114.55 160.1 113.47 160.99 112.92 161.5L111.91 162.42C112.89 163.66 114.39 165.5 115.87 167.31C117.35 169.13 119.33 171.48 120.25 172.53C121.17 173.59 123.14 175.76 124.61 177.35C126.08 178.94 127.33 180.24 127.38 180.23C127.43 180.23 127.45 176 127.43 170.84C127.41 165.68 127.35 158.63 127.3 155.18C127.2 149.37 127.17 148.91 126.88 148.9C126.7 148.9 126.02 148.71 125.37 148.48C124.71 148.25 123.68 147.72 123.08 147.3C122.47 146.88 121.94 146.53 121.88 146.53C121.83 146.53 121.25 147.06 120.6 147.72ZM68.54 149.64C68.19 150.34 67.58 151.72 67.19 152.71C66.8 153.69 66.05 155.81 65.53 157.42C65.01 159.03 64.22 161.84 63.78 163.65C63.33 165.46 62.76 168.1 62.5 169.51C62.24 170.92 61.87 173.33 61.67 174.87C61.47 176.4 61.31 177.89 61.3 178.17C61.3 178.67 61.3 178.67 62.17 177.83C62.65 177.37 63.58 176.6 64.24 176.12C64.89 175.64 65.84 175.03 66.34 174.77C66.99 174.44 67.56 174.3 68.31 174.29L69.36 174.27C69.36 154.19 69.32 148.36 69.27 148.36C69.22 148.36 68.89 148.93 68.54 149.64ZM163.98 150.28C163.87 150.98 163.77 152.76 163.78 154.22C163.78 155.68 163.91 157.82 164.08 158.98C164.24 160.14 164.61 162.2 164.91 163.56C165.21 164.92 165.76 167.12 166.13 168.45C166.51 169.78 166.74 170.88 166.64 170.88C166.54 170.88 165.63 170.68 164.62 170.44C163.62 170.19 162.09 169.78 161.24 169.52C160.38 169.26 159.58 169.05 159.45 169.05C159.33 169.05 159.78 169.79 160.46 170.69C161.14 171.59 162.23 173.17 162.88 174.21C163.53 175.25 164.68 177.34 165.45 178.85C166.21 180.36 167.28 182.73 167.83 184.12C168.38 185.51 168.87 186.64 168.92 186.65C168.97 186.65 169.19 186.26 169.41 185.77C169.63 185.29 169.94 184.24 170.11 183.43C170.28 182.63 170.47 181.18 170.53 180.23L170.63 178.49L169.29 176.01L170.75 176.2L170.75 168.14C169.86 166.08 169.26 164.57 168.83 163.47C168.4 162.36 167.56 159.93 166.96 158.06C166.36 156.2 165.55 153.48 165.17 152.02C164.79 150.56 164.41 149.28 164.34 149.18C164.26 149.08 164.1 149.57 163.98 150.28ZM197.62 155.64C197.4 156.12 197.19 157 197.15 157.61C197.11 158.22 197.18 159.07 197.31 159.53C197.45 159.98 197.85 160.81 198.22 161.36C198.59 161.91 199.42 162.77 200.06 163.26C200.7 163.75 201.76 164.42 202.42 164.75C203.07 165.08 204.18 165.52 204.89 165.74C205.59 165.96 206.95 166.22 207.91 166.33C209.17 166.47 210.14 166.46 211.48 166.3C212.48 166.18 214.01 165.88 214.86 165.64C215.72 165.39 216.5 165.11 216.6 165.02C216.72 164.91 216.61 164.82 216.33 164.76C216.07 164.71 215.33 164.58 214.68 164.47C214.02 164.36 212.58 164.03 211.48 163.74C210.37 163.45 208.68 162.9 207.72 162.51C206.77 162.12 205.41 161.46 204.7 161.05C204 160.64 202.93 159.93 202.32 159.48C201.72 159.03 200.78 158.18 200.24 157.58C199.69 156.99 199.03 156.12 198.77 155.64C198.5 155.16 198.22 154.77 198.15 154.77C198.07 154.77 197.83 155.16 197.62 155.64Z" />
		<path class="shp2" d="M237.83 158.66C237.63 158.78 236.56 159.61 235.45 160.5C234.34 161.39 232.57 162.69 231.52 163.4C230.46 164.1 228.81 165.08 227.86 165.56C226.9 166.05 225.6 166.64 224.97 166.88C224.33 167.12 223.85 167.4 223.88 167.5C223.92 167.6 224.32 167.86 224.76 168.09C225.2 168.32 226.06 168.59 226.67 168.7C227.28 168.82 228.29 168.85 228.95 168.78C229.61 168.71 230.72 168.54 231.42 168.4C232.13 168.26 233.65 167.83 234.81 167.44C235.97 167.05 237.2 166.58 237.55 166.4C237.91 166.22 238.47 165.85 238.81 165.59C239.15 165.33 239.66 164.74 239.95 164.29C240.24 163.84 240.58 163.05 240.69 162.55C240.8 162.05 240.84 161.2 240.78 160.67C240.7 159.98 240.52 159.54 240.12 159.07C239.67 158.55 239.44 158.43 238.88 158.44C238.5 158.44 238.03 158.54 237.83 158.66Z" />
	</g>
</svg>